<svg width="34" height="34" viewBox="0 0 34 34" fill="none" xmlns="http://www.w3.org/2000/svg">
<g clip-path="url(#clip0_8_223)">
<path d="M33.9589 29.4704C33.9787 29.6341 33.9887 29.7988 33.9886 29.9636C33.9886 30.0131 33.9886 30.0626 33.9886 30.1112C33.9886 30.1407 33.9886 30.1711 33.9886 30.198C33.9886 30.2249 33.9886 30.2414 33.9834 30.2631C33.9781 30.2848 33.9834 30.3265 33.9755 30.3586C33.9676 30.3908 33.9659 30.4455 33.9606 30.4889C33.9606 30.5166 33.9527 30.5444 33.9484 30.5757C33.944 30.6069 33.9379 30.6408 33.9317 30.6729C33.9256 30.7051 33.923 30.725 33.9177 30.7502C33.909 30.7919 33.8994 30.837 33.8897 30.8752C33.8746 30.9389 33.8579 31.0014 33.8398 31.0628C33.8302 31.094 33.8215 31.1261 33.811 31.1574C33.8005 31.1887 33.7908 31.2199 33.7803 31.2512C33.7602 31.3111 33.7383 31.3701 33.7147 31.4248C33.6911 31.4795 33.6674 31.5394 33.642 31.5985C33.6245 31.6375 33.6071 31.6757 33.5878 31.7131C33.5685 31.7504 33.5502 31.7895 33.5309 31.8259C33.5117 31.8624 33.4906 31.9006 33.4696 31.9371L33.4609 31.9536C33.4093 32.0404 33.3541 32.1316 33.2946 32.214C33.2789 32.2375 33.2622 32.2609 33.2456 32.2835L33.2176 32.3226C33.1861 32.366 33.1528 32.4094 33.1196 32.4511C33.1135 32.4589 33.1073 32.4676 33.1003 32.4754C33.0933 32.4832 33.0916 32.4867 33.0872 32.4927L33.0662 32.5179C33.0382 32.5509 33.0102 32.5839 32.9787 32.616C32.9656 32.6325 32.9507 32.6482 32.9367 32.6638L32.8964 32.7072L32.8019 32.8044C32.7555 32.8505 32.7091 32.8913 32.661 32.939C32.6129 32.9868 32.5814 33.0093 32.5394 33.0441C32.4974 33.0788 32.472 33.0996 32.437 33.1266C32.402 33.1535 32.36 33.1865 32.3206 33.2134C32.2812 33.2403 32.2409 33.2698 32.2007 33.3002C32.1604 33.3306 32.1368 33.3427 32.1044 33.3627L32.0169 33.4183C31.9486 33.4588 31.8786 33.4979 31.8068 33.5355C31.7806 33.5494 31.7535 33.5633 31.7255 33.5763C31.6266 33.6258 31.5242 33.6709 31.4209 33.7117C31.3596 33.7361 31.2975 33.7586 31.2345 33.7795L31.2152 33.7855C31.1706 33.8003 31.1277 33.8151 31.0805 33.8281C31.0332 33.8411 30.9755 33.8576 30.9229 33.8706C30.8704 33.8837 30.8354 33.8915 30.7969 33.9002C30.7584 33.9088 30.6884 33.9227 30.6333 33.9323L30.5554 33.9453L30.4477 33.9601L30.3541 33.9713H30.3409L30.2421 33.98C30.2106 33.98 30.179 33.9852 30.1467 33.9861H30.1327C30.1003 33.9861 30.067 33.9861 30.0346 33.9861H29.9323H29.7502C29.689 33.9861 29.6277 33.98 29.5664 33.9748L29.0492 33.9305C28.8742 33.9158 28.7035 33.901 28.5311 33.888C27.9063 33.8376 27.2814 33.7913 26.6565 33.7491L26.0308 33.7083L25.4059 33.6701C25.1976 33.657 24.9885 33.6458 24.7802 33.6345C24.4208 33.6148 24.0614 33.5969 23.702 33.5806L23.527 33.572H23.4797C23.2233 33.5598 22.9668 33.5494 22.7096 33.539C22.391 33.5262 22.0724 33.5147 21.7539 33.5042C21.5859 33.4982 21.4178 33.493 21.2489 33.4886C20.8989 33.477 20.5488 33.4681 20.1987 33.4617L19.9948 33.4565C19.8049 33.4565 19.615 33.4487 19.4242 33.4461H19.4049C19.0117 33.4391 18.6188 33.4342 18.2261 33.4313C17.5785 33.4261 16.9309 33.4261 16.2833 33.4313C15.7622 33.4313 15.2418 33.4371 14.722 33.4487C14.4612 33.4521 14.201 33.4571 13.9413 33.4634C12.6723 33.4912 11.4037 33.5361 10.1353 33.598C9.8097 33.6136 9.48414 33.6307 9.15858 33.6492L8.47858 33.6883L8.04711 33.7152L7.62966 33.7421C7.18041 33.7722 6.73146 33.8044 6.2828 33.8385C6.15503 33.8472 6.02812 33.8576 5.90034 33.8672H5.88109L5.36125 33.9088L4.85015 33.9522H4.81953L4.58237 33.9731L4.51498 33.9783H4.50972C4.38545 33.9896 4.26293 33.9948 4.14128 33.9948C4.08177 33.9948 4.02226 33.9948 3.96625 33.9904L3.84372 33.9835H3.83323L3.72996 33.9748L3.54967 33.9522H3.52517H3.50416L3.42628 33.9392C3.35977 33.9271 3.29326 33.9132 3.2285 33.8984C3.19874 33.8923 3.16986 33.8845 3.14098 33.8776H3.13397L3.0202 33.8463L2.93794 33.822C2.90293 33.8107 2.86881 33.8003 2.83468 33.7882L2.73577 33.7534C2.66751 33.728 2.60012 33.701 2.5336 33.6727L2.46884 33.644L2.40408 33.6136C2.35245 33.5893 2.30169 33.5641 2.25093 33.5372C2.20017 33.5103 2.15116 33.4834 2.10216 33.4504C2.07678 33.4365 2.05226 33.4218 2.02863 33.407L1.95601 33.3618C1.92801 33.3445 1.90086 33.3262 1.87373 33.308C1.79409 33.2533 1.71533 33.196 1.63919 33.1344C1.61294 33.1144 1.58757 33.0944 1.56306 33.0736L1.48867 33.0111L1.41515 32.946L1.3434 32.88C1.32064 32.8583 1.29701 32.8357 1.27426 32.8123L1.20599 32.7428C1.18324 32.7202 1.16136 32.6959 1.13948 32.6725L1.07472 32.5995L1.01171 32.5257L0.950452 32.4502C0.908445 32.3972 0.862924 32.3425 0.827917 32.287C0.811289 32.2635 0.793801 32.2392 0.778048 32.2149L0.723778 32.1342C0.706275 32.1064 0.688764 32.0795 0.672136 32.0517C0.655508 32.0239 0.631009 31.984 0.611755 31.9492C0.592502 31.9145 0.573256 31.8806 0.554002 31.845C0.542625 31.8251 0.532113 31.8042 0.521611 31.7834C0.494481 31.7296 0.468235 31.6757 0.442855 31.6202C0.434103 31.6011 0.424472 31.5811 0.416596 31.562L0.412216 31.5525C0.395588 31.5142 0.379832 31.476 0.364954 31.437C0.350076 31.3979 0.334322 31.3597 0.32032 31.3198C0.292315 31.2416 0.266069 31.1617 0.24244 31.0819C0.234564 31.0567 0.227562 31.0306 0.220561 31.0046C0.21356 30.9785 0.202177 30.9334 0.193426 30.8969C0.1873 30.8735 0.182054 30.8492 0.176803 30.8249C0.176803 30.8145 0.17242 30.8049 0.169795 30.7945C0.163669 30.7658 0.158423 30.738 0.153172 30.7077C0.147921 30.6773 0.147059 30.6755 0.144433 30.6599C0.141808 30.6443 0.13567 30.613 0.132169 30.5896C0.132169 30.5896 0.132169 30.5818 0.132169 30.5783C0.132169 30.5575 0.126034 30.5375 0.123409 30.5166C0.120783 30.4958 0.114667 30.4524 0.111166 30.4203C0.107665 30.3881 0.104155 30.3552 0.10153 30.323C0.0989043 30.2909 0.0954173 30.2579 0.093667 30.2249C0.0932357 30.222 0.0932357 30.2191 0.093667 30.2162C0.093667 30.1885 0.093667 30.1607 0.093667 30.1294C0.093667 30.0982 0.093667 30.0869 0.093667 30.0652C0.093667 29.9966 0.093667 29.9271 0.093667 29.8585C0.093667 29.8238 0.093667 29.7891 0.093667 29.7543C0.093667 29.7196 0.0936739 29.684 0.100675 29.6493C0.107676 29.6146 0.105914 29.5798 0.11029 29.5442C0.11029 29.5312 0.11029 29.5173 0.11029 29.5043C0.281821 27.9831 0.421559 26.4594 0.529495 24.933C0.546998 24.6894 0.56334 24.4448 0.578509 24.1994C0.657274 22.9839 0.715618 21.7643 0.753541 20.5407C0.78213 19.6244 0.79962 18.7078 0.806038 17.791C0.806038 17.5418 0.806038 17.2935 0.806038 17.0443C0.806038 16.2195 0.797011 15.3943 0.778924 14.5689C0.739834 12.8151 0.659318 11.063 0.537379 9.31267C0.481952 8.50579 0.417172 7.69949 0.343075 6.89377C0.273062 6.13146 0.195472 5.37031 0.11029 4.61032L0.095419 4.48008C0.0831668 4.37156 0.0752895 4.2639 0.072664 4.15797C0.041011 3.13628 0.400842 2.14065 1.07965 1.37167C1.75847 0.602692 2.70581 0.117519 3.73084 0.0138947H3.73695C3.80259 0.0069488 3.86998 0.00260912 3.93736 -0.000863813C4.00475 -0.00433674 4.07565 -0.006073 4.14654 -0.006073C4.1903 -0.006073 4.23406 -0.006073 4.27869 -0.006073C4.32332 -0.006073 4.37582 -0.00173215 4.42396 0.00174078H4.46071H4.49485C8.44007 0.273208 12.3891 0.417914 16.3419 0.435857C17.8419 0.442224 19.3428 0.429778 20.8446 0.398521C23.7851 0.340639 26.7242 0.209248 29.6618 0.00434537C29.7598 -0.00173226 29.8561 -0.006073 29.9515 -0.006073C30.5267 -0.00488755 31.0952 0.117164 31.6194 0.352049C32.1437 0.586934 32.6118 0.929323 32.9931 1.35667C33.3743 1.78402 33.66 2.28664 33.8313 2.83143C34.0026 3.37622 34.0556 3.95083 33.9869 4.51742L33.9711 4.64765C33.8544 5.60618 33.7515 6.56587 33.6622 7.52671C33.4872 9.42467 33.3635 11.3255 33.2911 13.2293C33.2456 14.483 33.2223 15.7367 33.2211 16.9904C33.2211 17.1459 33.2211 17.3013 33.2211 17.4567C33.2252 18.8233 33.2576 20.1902 33.3182 21.5574C33.4163 23.7766 33.586 25.9923 33.8276 28.2045C33.8632 28.6306 33.9069 29.0525 33.9589 29.4704Z" fill="#AC4250"/>
<g opacity="0.4">
<path opacity="0.4" d="M0.0743408 30.2284C0.110336 30.7651 0.254006 31.2892 0.496922 31.77C0.739838 32.2508 1.0771 32.6787 1.48894 33.0285C1.90077 33.3782 2.37886 33.6429 2.89518 33.8069C3.41149 33.9709 3.95563 34.0309 4.49566 33.9835L4.56916 33.9774C5.13568 33.9271 5.7025 33.8808 6.26961 33.8385C4.77046 32.0986 2.01545 30.9021 0.0743408 30.2284Z" fill="#8C3047"/>
<path opacity="0.4" d="M0.0901162 4.61727C0.175298 5.37726 0.252888 6.13841 0.322901 6.90072C9.88228 8.13187 17.301 3.33141 20.8244 0.408073C19.3226 0.43933 17.8217 0.451774 16.3217 0.445407C12.3012 2.52309 5.69903 5.22069 0.0524902 4.16492C0.0524902 4.27084 0.062993 4.3785 0.0752453 4.48703L0.0901162 4.61727Z" fill="#8C3047"/>
<path opacity="0.4" d="M0.520691 9.31961C0.643213 11.07 0.723729 12.8221 0.762236 14.5759C7.81778 13.7259 14.6222 11.2419 21.2323 11.0873C26.3835 10.9667 30.8196 12.3029 33.2745 13.2388C33.3451 11.3357 33.4688 9.4348 33.6455 7.53626C31.0813 8.52865 27.5562 9.26405 23.0867 8.78825C15.7336 8.00684 5.73052 8.79433 0.520691 9.31961Z" fill="#8C3047"/>
<path opacity="0.4" d="M33.3033 21.5669C32.359 21.5843 31.399 21.6416 30.4363 21.7293C29.4483 21.8161 28.4584 21.9411 27.4809 22.0861C24.2253 22.5697 21.1167 23.3103 18.7293 23.9624C17.6887 24.2454 16.7847 24.5128 16.0627 24.7351C15.7599 24.828 15.4894 24.9131 15.254 24.9886C16.93 26.3352 18.5061 27.7997 19.9703 29.3706C20.0473 29.4522 20.1234 29.5338 20.1987 29.6154C20.5184 29.9592 20.8262 30.2996 21.122 30.6365L21.2926 30.831C21.8667 31.4882 22.3936 32.1246 22.8679 32.7211C23.1013 33.0175 23.3207 33.3025 23.526 33.5763H23.4788C23.2224 33.5641 22.9659 33.5537 22.7086 33.5433C22.3901 33.5306 22.0715 33.519 21.753 33.5086C21.5849 33.5025 21.4169 33.4973 21.248 33.493C20.8979 33.4814 20.5479 33.4724 20.1978 33.466L19.9939 33.4608C19.853 33.2273 19.6998 32.9798 19.5344 32.722C19.5143 32.6898 19.4933 32.6568 19.4714 32.6239C19.0995 32.0447 18.6715 31.4161 18.1928 30.7719L18.0519 30.5835C17.7946 30.2432 17.5268 29.9002 17.2406 29.559C17.1689 29.4722 17.0954 29.3853 17.0201 29.2985C15.4369 27.4396 13.4748 25.6763 11.272 24.8358C11.0463 24.749 10.8181 24.6726 10.5877 24.6066C8.57917 24.0318 6.30375 24.0318 4.13773 24.2862C3.89881 24.314 3.66165 24.3444 3.42623 24.3791L3.2512 24.4043C2.69985 24.4868 2.16074 24.584 1.63914 24.6908C1.25145 24.7698 0.87426 24.8532 0.510193 24.94C0.527696 24.6963 0.544038 24.4518 0.559207 24.2063C0.637971 22.9908 0.696316 21.7712 0.734239 20.5476C1.62942 20.4409 2.53083 20.3942 3.43235 20.4078C3.49186 20.4078 3.55137 20.4078 3.60738 20.4078C3.78708 20.4113 3.96852 20.4182 4.15173 20.4287C6.16879 20.5272 8.15307 20.9741 10.0153 21.7492C10.2697 21.8557 10.5249 21.9715 10.7811 22.0965C10.9736 22.1894 11.167 22.2875 11.3596 22.3891C11.8076 22.627 12.2566 22.8892 12.7029 23.1705C12.7029 23.1705 13.2753 22.9431 14.2555 22.5775C17.0402 21.5357 23.1209 19.3903 28.7604 18.1904C29.2896 18.0781 29.8147 17.9747 30.3357 17.8804C31.3255 17.7007 32.2899 17.5574 33.2071 17.4628C33.2106 18.8323 33.2427 20.2003 33.3033 21.5669Z" fill="#8C3047"/>
<path opacity="0.4" d="M33.9588 29.4704C33.9081 29.0519 33.86 28.6332 33.8145 28.2141C31.8935 29.2082 29.5472 30.9681 28.5215 33.8924C28.8675 33.9196 29.2126 33.9485 29.5568 33.9792C30.1189 34.0284 30.6852 33.9612 31.2197 33.7819C31.7542 33.6025 32.2454 33.315 32.6621 32.9375C33.0787 32.5599 33.4118 32.1007 33.6401 31.5887C33.8685 31.0768 33.9872 30.5234 33.9886 29.9636C33.9887 29.7988 33.9787 29.6341 33.9588 29.4704Z" fill="#8C3047"/>
</g>
<g opacity="0.53">
<path opacity="0.53" d="M32.7958 32.8079C32.7494 32.8539 32.703 32.8948 32.6549 32.9425C32.5831 33.0068 32.5079 33.0701 32.4309 33.13C32.3539 33.19 32.2751 33.2473 32.1946 33.3037C31.9496 33.4686 31.6872 33.6066 31.4122 33.7152C31.3509 33.7395 31.2888 33.7621 31.2258 33.783C30.8065 33.9246 30.3665 33.9968 29.9235 33.9965H29.7389C29.6776 33.9965 29.6163 33.9896 29.5551 33.9844C29.38 33.9696 29.2103 33.954 29.0379 33.941C28.8655 33.928 28.6922 33.9115 28.5198 33.8976C27.8949 33.8472 27.27 33.8012 26.6452 33.7595C26.4369 33.7448 26.2277 33.7309 26.0194 33.7187C25.8111 33.7066 25.6028 33.6918 25.3946 33.6805C25.1863 33.6692 24.9771 33.6562 24.7688 33.6449C24.4094 33.6252 24.05 33.6073 23.6906 33.5911L23.5156 33.5824H23.4683C23.2119 33.5702 22.9546 33.5598 22.6982 33.5494C22.3796 33.5367 22.0611 33.5251 21.7425 33.5147L21.2384 33.4999L20.7545 33.4869L20.1839 33.4721C19.926 33.4658 19.6678 33.4606 19.4093 33.4565H19.3901C18.3492 33.4391 17.3087 33.4333 16.2684 33.4391C15.7474 33.4426 15.227 33.4484 14.7071 33.4565L13.9265 33.4713C12.6575 33.499 11.3888 33.5439 10.1204 33.6058C9.79484 33.6215 9.46926 33.6385 9.1437 33.6571L8.4637 33.6961L8.03225 33.723L7.6148 33.75C7.16555 33.7795 6.71631 33.8113 6.26706 33.8455L5.86623 33.8767L5.34639 33.9184C5.17573 33.9323 5.00594 33.9462 4.83529 33.9618L4.56748 33.9844L4.50009 33.9905H4.49486C4.37059 34.0018 4.24807 34.007 4.12642 34.007C4.06691 34.007 4.0074 34.007 3.95139 34.0026C3.90675 34.0026 3.86387 34.0026 3.81836 33.9948L3.71508 33.9861C3.64623 33.978 3.57798 33.9693 3.5103 33.9601L3.4114 33.9436C3.34489 33.9314 3.27837 33.9175 3.21361 33.9028C3.18386 33.8967 3.15498 33.8889 3.12609 33.8819L3.00446 33.8429L2.9222 33.8186C2.78494 33.7757 2.64998 33.7258 2.51786 33.6692C2.4741 33.6501 2.43035 33.631 2.38834 33.6102C2.28507 33.5616 2.18443 33.5086 2.08641 33.4513C2.03653 33.4226 1.98838 33.3931 1.94025 33.3645C1.91224 33.3471 1.88512 33.3289 1.85799 33.3106C1.77747 33.2557 1.69871 33.1978 1.6217 33.137C1.59544 33.117 1.57005 33.0971 1.54555 33.0762L1.47117 33.0137L1.39765 32.9486C1.34952 32.9052 1.30227 32.8618 1.25676 32.8149L1.1885 32.7454C1.16574 32.7228 1.14386 32.6985 1.12199 32.6751L1.05722 32.6022L0.994215 32.5284L0.932937 32.4528C0.890929 32.3999 0.845429 32.3452 0.810423 32.2896C0.793795 32.2662 0.776286 32.2418 0.760533 32.2175L0.706284 32.1368C0.688781 32.109 0.67127 32.0821 0.654642 32.0543C0.613509 31.9866 0.57414 31.918 0.536508 31.8477C0.525131 31.8277 0.514618 31.8069 0.504116 31.786C0.476986 31.7322 0.45074 31.6784 0.425361 31.6228C0.414859 31.6002 0.404348 31.5776 0.394721 31.5551C0.328782 31.4017 0.272093 31.2445 0.224945 31.0845C0.217069 31.0593 0.210068 31.0333 0.203066 31.0072C0.196065 30.9812 0.184683 30.936 0.175931 30.8996C0.169805 30.8761 0.164559 30.8518 0.159308 30.8275C0.159308 30.8171 0.154926 30.8075 0.1523 30.7971C0.146174 30.7684 0.140928 30.7407 0.135677 30.7103C0.130426 30.6799 0.129542 30.6782 0.126917 30.6625C0.124292 30.6469 0.117298 30.6078 0.112922 30.5809C0.108546 30.554 0.106787 30.5401 0.104162 30.5193C0.101536 30.4984 0.0954198 30.455 0.0919191 30.4229C0.0884185 30.3908 0.0849084 30.3578 0.082283 30.3257C0.0796575 30.2935 0.0761705 30.2605 0.0744202 30.2275C0.0739888 30.2247 0.0739888 30.2217 0.0744202 30.2189C0.0744202 30.1911 0.0744202 30.1633 0.0744202 30.132C0.0744202 30.1008 0.0744202 30.0895 0.0744202 30.0678C0.0744202 29.9992 0.0744202 29.9297 0.0744202 29.8611C0.0744202 29.8264 0.0744202 29.7917 0.0744202 29.757C0.0744202 29.6866 0.0831667 29.6172 0.0910431 29.5468C0.11537 29.7961 0.163118 30.0426 0.233684 30.2831C0.501773 31.1758 1.07254 31.9492 1.84936 32.4725C2.62617 32.9957 3.56135 33.2366 4.49661 33.1544L4.56923 33.1474C4.87729 33.1202 5.18535 33.0944 5.49341 33.0701C10.0863 32.6956 14.6878 32.5449 19.2982 32.6178H19.4592C20.5923 32.6369 21.7256 32.6699 22.8592 32.7168C23.2256 32.7307 23.5923 32.7469 23.9593 32.7654C25.59 32.8447 27.219 32.9518 28.8462 33.0866C29.0825 33.1057 29.3188 33.1257 29.5551 33.1465C30.6186 33.2401 31.6766 32.9156 32.5013 32.2428C33.326 31.57 33.8513 30.6028 33.9641 29.5494C34.0259 30.1446 33.9531 30.7459 33.751 31.3096C33.5489 31.8733 33.2225 32.3852 32.7958 32.8079Z" fill="#6D2238"/>
</g>
<g style="mix-blend-mode:screen" opacity="0.53">
<g style="mix-blend-mode:screen" opacity="0.53">
<path d="M29.555 0.850005C21.2427 1.58062 12.8815 1.58062 4.56919 0.850005L4.49657 0.843061C3.43229 0.75054 2.37397 1.07657 1.54972 1.75089C0.725466 2.42521 0.201284 3.39382 0.0901248 4.44796C0.0300868 3.85641 0.102419 3.25901 0.301971 2.6984C0.501523 2.13779 0.823383 1.62779 1.24454 1.20482C1.6657 0.781857 2.17578 0.456349 2.73838 0.251535C3.30099 0.0467206 3.90222 -0.0323481 4.49917 0.019975L4.57182 0.0269197C12.8842 0.757537 21.2453 0.757537 29.5577 0.0269197C30.1547 -0.0257202 30.7561 0.0531299 31.3188 0.257833C31.8816 0.462536 32.3918 0.788037 32.813 1.21107C33.2343 1.63411 33.5561 2.14424 33.7555 2.70499C33.955 3.26575 34.0271 3.86329 33.9667 4.45491C33.8558 3.39969 33.3309 2.43011 32.5055 1.75561C31.68 1.0811 30.6202 0.755814 29.555 0.850005Z" fill="#6D2238"/>
</g>
</g>
<path d="M30.3707 14.3311C30.348 15.2213 30.3363 16.1106 30.3357 16.9991C30.3357 18.9683 30.3891 20.947 30.5011 22.924C30.5367 23.6006 30.5805 24.2764 30.6324 24.9513C30.7537 26.5783 30.9124 28.199 31.1085 29.8134C31.1299 29.98 31.1149 30.1493 31.0646 30.3097C31.0144 30.4702 30.9299 30.618 30.8171 30.7433C30.7061 30.8693 30.5693 30.9703 30.4158 31.0397C30.2623 31.109 30.0957 31.145 29.927 31.1452C29.8894 31.1452 29.8517 31.1453 29.8132 31.14C28.4462 31.0202 27.0751 30.9192 25.7 30.837C22.8216 30.6634 19.93 30.5766 17.0613 30.5766C15.079 30.5766 13.0845 30.6182 11.0909 30.7007C8.82776 30.7927 6.56721 30.9395 4.32417 31.1348L4.25155 31.1418C4.21392 31.1418 4.17453 31.1418 4.13777 31.1418C3.96868 31.1443 3.80102 31.1106 3.64622 31.043C3.49143 30.9754 3.35313 30.8756 3.24073 30.7502C3.12754 30.6264 3.0424 30.48 2.99107 30.3207C2.93974 30.1615 2.92342 29.9933 2.94319 29.8273C3.0733 28.6696 3.1856 27.5071 3.28011 26.3396C3.37813 25.1449 3.45718 23.9479 3.51728 22.7486C3.58787 21.3241 3.63222 19.8982 3.6503 18.4708C3.66372 17.4526 3.66372 16.4336 3.6503 15.4137C3.63105 14.112 3.59022 12.8116 3.52779 11.5128C3.46945 10.3661 3.39652 9.21977 3.309 8.0737C3.20981 6.81419 3.08962 5.5564 2.94842 4.30036L2.93443 4.17186C2.91483 4.00594 2.93117 3.83778 2.98233 3.67862C3.03349 3.51946 3.1183 3.37297 3.2311 3.24893C3.34127 3.12335 3.47719 3.02253 3.62977 2.95321C3.78235 2.88389 3.94808 2.84766 4.1159 2.84694C4.14565 2.84694 4.17541 2.84694 4.20341 2.84694L4.27693 2.85215C7.81783 3.09525 11.406 3.23938 14.9696 3.27845C15.6634 3.28713 16.3562 3.29118 17.0482 3.2906C17.8761 3.2906 18.706 3.28482 19.538 3.27324C22.9721 3.22723 26.4272 3.0857 29.8395 2.85128C29.8701 2.85128 29.8999 2.84694 29.927 2.84694C30.0958 2.84707 30.2626 2.88301 30.4163 2.95234C30.57 3.02167 30.7069 3.1228 30.8179 3.24893C30.9308 3.37423 31.0152 3.52205 31.0656 3.68245C31.1161 3.84285 31.1313 4.01209 31.1102 4.17881L31.0945 4.30904C30.8083 6.6689 30.6009 9.0522 30.474 11.4381C30.4273 12.4059 30.3929 13.3702 30.3707 14.3311Z" fill="#8C3047"/>
<g opacity="0.5">
<path opacity="0.5" d="M14.6519 6.58033C16.2333 5.08958 18.0169 4.01731 19.5423 3.28105C18.7109 3.29321 17.881 3.299 17.0525 3.29842C16.3611 3.29842 15.6683 3.29436 14.974 3.28626C11.4672 5.13039 7.17892 8.14315 3.30896 8.0737C3.39881 9.21803 3.47174 10.3644 3.52775 11.5128C7.50536 10.9692 11.6545 9.4073 14.6519 6.58033Z" fill="#7C2941"/>
<path opacity="0.5" d="M11.0822 30.7025C13.0758 30.6156 15.0703 30.5783 17.0525 30.5783C19.9213 30.5783 22.8128 30.6651 25.6912 30.8388C24.2638 30.2353 22.2518 29.7101 19.4714 29.572C15.7931 29.3871 12.9821 30.0226 11.0822 30.7025Z" fill="#7C2941"/>
<path opacity="0.5" d="M3.65027 15.4137C3.66544 16.4319 3.66544 17.4509 3.65027 18.4708C6.21887 18.6114 11.2843 18.3241 17.0595 14.9492C22.9231 11.5241 27.9115 13.0947 30.3619 14.3311C30.387 13.3696 30.4252 12.4076 30.4766 11.445C28.609 10.9745 23.0771 10.0437 17.0577 13.4784C12.6189 16.012 7.24455 15.9052 3.65027 15.4137Z" fill="#7C2941"/>
<path opacity="0.5" d="M19.2868 25.0633C24.697 25.9141 28.4357 25.4739 30.628 24.9513C30.5772 24.2764 30.5335 23.6006 30.4967 22.9239C27.0153 23.7922 20.2573 25.0728 16.1353 23.2244C12.0903 21.4124 6.4858 22.1512 3.51988 22.7486C3.46154 23.9479 3.38248 25.1449 3.28271 26.3396C6.35978 25.4331 12.6364 24.0179 19.2868 25.0633Z" fill="#7C2941"/>
</g>
<path d="M17.9793 29.2916C13.7453 29.2916 9.45961 29.48 5.2422 29.8498L5.17044 29.8568C5.13193 29.8568 5.09342 29.862 5.05578 29.862C4.88799 29.8617 4.72218 29.826 4.56934 29.7573C4.4165 29.6886 4.28013 29.5884 4.16926 29.4635C4.05655 29.3394 3.9718 29.1929 3.92064 29.0337C3.86948 28.8746 3.85308 28.7065 3.87256 28.5405C4.82474 20.0788 3.17244 3.28974 3.04554 3.43213C2.93277 3.55636 2.84798 3.70301 2.79682 3.8623C2.74566 4.02159 2.7293 4.18987 2.74885 4.35593L2.76374 4.48443C3.71585 12.9669 3.71585 21.528 2.76374 30.0105C2.74419 30.1765 2.76053 30.3448 2.81169 30.5041C2.86285 30.6634 2.94764 30.81 3.06041 30.9343C3.1706 31.0585 3.306 31.1582 3.45772 31.2268C3.60944 31.2955 3.77407 31.3316 3.94083 31.3328C3.97846 31.3328 4.01697 31.3328 4.05548 31.3276L4.12723 31.3215C8.3455 30.9508 12.6303 30.7632 16.8643 30.7632C21.0984 30.7632 25.3998 30.9516 29.6233 31.325C29.6618 31.325 29.6994 31.3302 29.7371 31.3302C29.9058 31.3301 30.0725 31.2943 30.226 31.2249C30.3795 31.1556 30.5163 31.0544 30.6271 30.9282C30.7601 30.7771 22.2194 29.2916 17.9793 29.2916Z" fill="#6D2238"/>
<path d="M29.1927 3.59015C29.3615 3.59017 29.5282 3.62597 29.6819 3.69515C29.8355 3.76433 29.9725 3.86529 30.0836 3.99127C30.1965 4.11657 30.2809 4.26439 30.3314 4.42479C30.3818 4.58518 30.397 4.75443 30.3759 4.92115L30.3602 5.05225C29.8963 8.87247 30.3322 16.6041 30.3322 16.6041C30.3507 12.4968 30.6076 8.39398 31.1015 4.31599L31.1172 4.18575C31.1382 4.01904 31.123 3.84979 31.0726 3.68939C31.0222 3.529 30.9377 3.38117 30.8249 3.25588C30.7139 3.12977 30.5769 3.02872 30.4232 2.95953C30.2696 2.89034 30.1027 2.85461 29.934 2.85475H29.8465C25.6081 3.14735 21.304 3.29495 17.0551 3.29495C15.6111 3.29495 14.1621 3.27758 12.7082 3.24285C12.7082 3.24285 20.4009 4.09632 29.1052 3.59015H29.1927Z" fill="#6D2238"/>
<g style="mix-blend-mode:screen" opacity="0.44">
<g style="mix-blend-mode:screen" opacity="0.44">
<path style="mix-blend-mode:screen" opacity="0.44" d="M28.9704 12.5295C29.0938 10.2148 29.2951 7.90266 29.5734 5.61313L29.5883 5.48637C29.6086 5.32464 29.5938 5.16049 29.5449 5.0049C29.496 4.84932 29.4141 4.70591 29.3048 4.58427C29.197 4.46191 29.064 4.36382 28.9149 4.29658C28.7658 4.22935 28.6039 4.19452 28.4401 4.19444C28.4109 4.19417 28.3816 4.19562 28.3526 4.19878C25.0418 4.42626 21.6891 4.56344 18.3574 4.60772C17.551 4.61929 16.7462 4.62508 15.9428 4.62508C15.2712 4.62508 14.5988 4.62103 13.9256 4.61292C10.4678 4.57472 21.3347 7.82539 24.6454 7.60052C24.6752 7.60052 24.704 7.60052 24.7329 7.60052C24.8967 7.60054 25.0587 7.63534 25.2078 7.70258C25.3569 7.76982 25.4898 7.86794 25.5976 7.99035C25.707 8.11192 25.7889 8.25533 25.8378 8.41093C25.8867 8.56653 25.9015 8.73072 25.8811 8.89245L25.8654 9.01921C25.5879 11.3079 28.8261 17.9221 28.8261 17.9221C28.8261 17.9221 28.8374 16.1969 28.8602 15.3339C28.8823 14.3985 28.9191 13.4637 28.9704 12.5295Z" fill="url(#paint0_linear_8_223)"/>
</g>
</g>
<g style="mix-blend-mode:color-burn" opacity="0.25">
<g style="mix-blend-mode:color-burn" opacity="0.25">
<path d="M31.3247 10.4223L30.6823 12.3715L30.4023 13.2215L30.215 13.791L30.0837 14.1895L29.3065 16.5459L28.7639 18.1912L27.4827 22.0861L26.9576 23.668L26.345 25.5139L24.9036 29.9054L24.7172 30.4706L24.6166 30.7754L24.5535 30.9673L23.9593 32.7697L23.6906 33.5824L23.5156 33.5737H23.4683C23.2119 33.5615 22.9555 33.5511 22.6982 33.5407C22.3797 33.528 22.0611 33.5164 21.7425 33.506L21.2384 33.4912L19.5187 32.7202L19.2947 32.6195L15.1814 30.7728L14.7867 30.5991L13.4968 30.0192L12.1455 29.4114L4.53161 25.994L4.07741 25.79L3.34576 25.4618L3.17862 25.3863L1.63307 24.6917L0.559265 24.2055C0.63803 22.9899 0.696374 21.7704 0.734297 20.5467C0.762886 19.6305 0.780376 18.7139 0.786794 17.797L0.961826 15.9008L2.29119 14.3658L3.39916 13.086L3.58381 12.8733L3.84635 12.5651L4.14304 12.2221L4.27782 12.0658L7.82921 10.5143L9.31699 9.86313L11.3299 8.98361L12.4072 8.51303L17.3527 6.35112L19.6421 5.35092L19.8504 5.35787L24.7356 5.50981L29.0055 8.72227L29.2173 8.88202L30.138 9.57661L30.565 9.89786L31.2879 10.4414L31.3247 10.4223Z" fill="#6D2238"/>
</g>
</g>
<path d="M31.1313 6.97191L29.121 13.0817L23.2268 30.989L0.0297852 20.5615V20.5528L0.78855 12.4296L3.97414 8.75005L4.10891 8.59377L19.4767 1.87886L19.685 1.88581L24.5711 2.03775L31.1234 6.96584L31.1313 6.97191Z" fill="url(#paint1_linear_8_223)"/>
<path d="M31.1496 6.94934L29.1315 13.0756L23.2267 30.989L23.2819 14.6375L23.2906 11.8028L27.2726 9.34393L31.1233 6.96584L31.1496 6.94934Z" fill="url(#paint2_linear_8_223)"/>
<g style="mix-blend-mode:screen" opacity="0.46">
<g style="mix-blend-mode:screen" opacity="0.46">
<path d="M23.2906 11.8028L23.2819 14.6375L23.2267 30.989L11.7936 5.23632L14.4891 4.05813L15.9489 4.92289L18.8553 6.64459L22.9187 11.3695L22.9213 11.3721L23.2906 11.8028Z" fill="#3A8D45"/>
</g>
</g>
<path d="M31.1312 6.97191L29.121 13.0817L23.2268 30.989L26.3782 14.1322L27.2726 9.34392L22.6325 3.33922L19.685 1.8858L24.571 2.03774L31.1234 6.96583L31.1312 6.97191Z" fill="url(#paint3_linear_8_223)"/>
<path d="M23.2268 30.989L8.91439 18.0844L0 20.5606L23.2268 30.989Z" fill="url(#paint4_linear_8_223)"/>
<g style="mix-blend-mode:screen" opacity="0.21">
<g style="mix-blend-mode:screen" opacity="0.21">
<path d="M11.7937 5.23631L23.2268 30.989L8.91439 18.0844L8.07336 11.3556L9.0973 6.4145L11.7937 5.23631Z" fill="#3A8D45"/>
</g>
</g>
<g style="mix-blend-mode:screen" opacity="0.46">
<g style="mix-blend-mode:screen" opacity="0.46">
<path d="M23.2268 30.989L0.0288696 20.5615L0.78851 12.4288L3.9741 8.75005L3.0648 11.8887L4.39767 19.339L23.2268 30.989Z" fill="#3A8D45"/>
</g>
</g>
<g style="mix-blend-mode:screen" opacity="0.35">
<g style="mix-blend-mode:screen" opacity="0.35">
<path d="M24.571 2.03775L22.6325 3.33923L22.2728 3.65353V3.6544L18.8553 6.64459L8.07335 11.3556L3.06481 11.8896L0.788513 12.4296L3.9741 8.75006L4.10887 8.59377L19.4767 1.87886L19.685 1.88581L24.571 2.03775Z" fill="#3A8D45"/>
</g>
</g>
<g style="mix-blend-mode:screen">
<g style="mix-blend-mode:screen">
<path d="M14.9075 8.36977L18.0283 6.54387L15.9445 4.92028L18.998 5.82498L22.2728 3.65353L19.7585 6.86859L22.9213 11.3721L18.3941 7.36696L14.9075 8.36977Z" fill="#3A8D45"/>
</g>
</g>
<g style="mix-blend-mode:screen" opacity="0.5">
<g style="mix-blend-mode:screen" opacity="0.5">
<path style="mix-blend-mode:screen" opacity="0.5" d="M31.1496 6.94934L29.1306 13.0756L29.1201 13.0817C28.8882 13.1963 28.6519 13.3074 28.4121 13.4125C27.7522 13.7006 27.0722 13.9412 26.3774 14.1322C25.3668 14.4102 24.329 14.5796 23.2819 14.6375C20.4321 14.7939 17.5974 14.1306 15.1184 12.7274C13.7699 11.9649 12.551 10.9962 11.5066 9.85706C10.558 8.82031 9.76457 7.65362 9.1507 6.3928L19.4776 1.87799L19.6859 1.88494L24.571 2.03688L31.1242 6.96497L31.1496 6.94934Z" fill="url(#paint5_linear_8_223)"/>
</g>
</g>
</g>
<defs>
<linearGradient id="paint0_linear_8_223" x1="20.1086" y1="12.9263" x2="26.008" y2="2.62747" gradientUnits="userSpaceOnUse">
<stop offset="0.2" stop-color="#822E43"/>
<stop offset="1" stop-color="#8B3047"/>
</linearGradient>
<linearGradient id="paint1_linear_8_223" x1="1.95157" y1="24.9145" x2="32.9714" y2="11.1435" gradientUnits="userSpaceOnUse">
<stop stop-color="#F2FB7C"/>
<stop offset="1" stop-color="#3A8D45"/>
</linearGradient>
<linearGradient id="paint2_linear_8_223" x1="22181" y1="15025.7" x2="25587.7" y2="13081.1" gradientUnits="userSpaceOnUse">
<stop stop-color="#F2FB7C"/>
<stop offset="1" stop-color="#3A8D45"/>
</linearGradient>
<linearGradient id="paint3_linear_8_223" x1="31766" y1="17794.7" x2="36975" y2="14246.4" gradientUnits="userSpaceOnUse">
<stop stop-color="#F2FB7C"/>
<stop offset="1" stop-color="#3A8D45"/>
</linearGradient>
<linearGradient id="paint4_linear_8_223" x1="20.0163" y1="31.1953" x2="0.010763" y2="16.2734" gradientUnits="userSpaceOnUse">
<stop stop-color="#F2FB7C"/>
<stop offset="1" stop-color="#6DAC54"/>
</linearGradient>
<linearGradient id="paint5_linear_8_223" x1="12.0129" y1="12.8631" x2="30.1825" y2="4.79689" gradientUnits="userSpaceOnUse">
<stop offset="0.2" stop-color="#822E43"/>
<stop offset="1" stop-color="#9FFFFF"/>
</linearGradient>
<clipPath id="clip0_8_223">
<rect width="34" height="34" fill="white"/>
</clipPath>
</defs>
</svg>
