<svg width="259" height="214" viewBox="0 0 259 214" fill="none" xmlns="http://www.w3.org/2000/svg">
<g clip-path="url(#clip0_2_3)">
<path d="M221.891 88.3245V105.617L221.435 105.762L195.901 114.253L184.976 110.618L131.018 141.699L128.584 143.092H128.556L124.698 145.327L125.521 146.148L131.018 151.631L116 166.592H86.0061L71.0091 151.631L76.4783 146.148H76.5059L77.3011 145.327L73.4637 143.113L71.0091 141.699L36.9151 122.068L25.9906 125.703L0.483996 117.233L0 117.067V99.7746L11.284 96.0223L25.9906 91.1388L36.9151 94.7669L38.7681 93.7116L58.2316 82.5029L60.4926 81.1786L71.0091 75.1431L73.4429 73.7222L86.0268 66.4796L97.1933 60.0579L90.9013 53.7603L105.898 38.7993H135.885L148.448 51.3048L150.91 53.7603L149.7 54.9605L144.59 60.0579L147.557 61.7685L161.399 69.7284L163.667 71.0528L183.123 82.2615L184.976 83.3168L195.901 79.6887L210.628 84.5722L221.891 88.3245Z" fill="#BECFEB"/>
<path d="M184.976 110.618V128.2L131.018 159.302V151.631L125.521 146.148L124.698 145.327L128.556 143.092H128.584L131.018 141.699L184.976 110.618Z" fill="#5F7596"/>
<path d="M36.922 122.068V139.664L70.9953 159.295V151.631L77.308 145.334L36.922 122.068Z" fill="#92AAD1"/>
<path d="M183.116 102.499V57.2092L110.607 98.9746L117.991 106.348V140.064L183.116 102.499Z" fill="#4F6180"/>
<path d="M84.0148 106.348V140.009L38.775 113.956V68.6663L91.3992 98.9746L84.0148 106.348Z" fill="#727CE8"/>
<path d="M109.494 114.812H92.5054V160.102H109.494V114.812Z" fill="#4F6180"/>
<path d="M117.991 106.341V151.631L109.494 160.109V114.812L117.991 106.341Z" fill="#3C4B66"/>
<path d="M84.0148 106.341V151.631L92.5054 160.109V114.812L84.0148 106.341Z" fill="#6F88B3"/>
<path d="M131.004 140.664L118.89 128.572L117.991 129.097V140.664L109.494 149.134H92.5054L84.0148 140.664V129.041L83.1436 128.538L70.9953 140.664L85.9991 155.632H116.007L131.004 140.664Z" fill="#EBF2FF"/>
<path d="M195.908 106.748V61.4651L183.116 57.2092V102.499L195.908 106.748Z" fill="#6F88B3"/>
<path d="M210.628 56.5746V101.865L210.151 102.03L195.901 106.748V61.4581L210.628 56.5746Z" fill="#3C4B66"/>
<path d="M221.891 77.3573V94.6498L210.628 98.4021L204.938 100.278L195.901 103.286L186.885 100.278L184.976 99.6506L183.123 91.5251L195.901 95.781L210.628 90.8974V73.605L221.891 77.3573Z" fill="#BECFEB"/>
<path d="M25.9837 118.205V72.9221L38.775 68.6663V113.956L25.9837 118.205Z" fill="#3C4B66"/>
<path d="M11.2702 113.315V68.0248L25.9837 72.9221V118.205L11.2702 113.315Z" fill="#4F6180"/>
<path d="M36.922 111.101L38.775 102.982L25.9837 107.238L11.2702 102.348V85.062L0 88.8143V106.093L25.9837 114.736L36.922 111.101Z" fill="#EBF2FF"/>
<path d="M116.007 155.639H85.9991V184.195H116.007V155.639Z" fill="#BECFEB"/>
<path d="M131.018 140.664V169.234L116 184.195V155.646L128.584 143.092L131.018 140.664Z" fill="#97AAC7"/>
<path d="M195.901 103.286V131.835L184.976 128.2V110.618L183.123 102.492V91.5251L184.976 99.6506L186.885 100.278L195.901 103.286Z" fill="#92AAD1"/>
<path d="M221.891 94.6498V123.199L195.901 131.835V103.286L204.938 100.278L210.628 98.4021L221.891 94.6498Z" fill="#5F7596"/>
<path d="M70.9953 140.671V169.227L85.9991 184.195V155.639L70.9953 140.671Z" fill="#D0DDF2"/>
<path d="M25.9837 114.75V143.299L36.922 139.664V122.068L38.775 113.956V102.982L36.922 111.115L25.9837 114.75Z" fill="#97AAC7"/>
<path d="M0 106.107V134.663L25.9837 143.299V114.749L0 106.107Z" fill="#BECFEB"/>
<g style="mix-blend-mode:multiply">
<g style="mix-blend-mode:multiply">
<path d="M40.7663 115.101V72.5014L36.922 70.2872L25.9837 73.9223V107.238L36.922 111.114L25.9837 114.75V143.299H43.2139V125.696L40.7663 115.101Z" fill="#A48DBA"/>
</g>
</g>
<path d="M210.621 56.5746V46.7868L195.908 41.8964L137.877 8.47033L129.386 0H112.405L103.907 8.47723L25.9837 53.3534L11.2771 58.2439L11.2702 68.0316L25.9837 72.9221H25.9906L84.0148 106.341H84.0217L84.0148 106.348L92.5054 114.819H109.494L117.991 106.348L117.984 106.341H117.991L195.894 61.4582L195.908 61.4651L210.621 56.5746Z" fill="#899DBF"/>
<path d="M188.668 46.0694V57.2988L143.85 83.1099L135.941 78.5643V15.6921L188.668 46.0694Z" fill="#FF8F52"/>
<path d="M143.85 83.1099L116.048 99.1263H85.9577L78.0547 94.5807L33.2298 68.749V57.5196L105.85 15.6921H135.941V78.5643L143.85 83.1099Z" fill="#C73528"/>
<path d="M143.85 83.1099L116.048 99.1263H85.9577L78.0547 94.5807L105.85 78.5643H135.941L143.85 83.1099Z" fill="#FFCB52"/>
<path d="M135.941 15.6921H105.85V78.5643H135.941V15.6921Z" fill="#FF7252"/>
<g style="mix-blend-mode:hard-light">
<g style="mix-blend-mode:hard-light">
<path d="M112.176 15.6921L128.508 78.5712L116.048 99.1263H85.9577L33.2229 68.7559L33.2159 57.5196L105.843 15.6921H112.176Z" fill="#FFCB52"/>
</g>
</g>
<g style="mix-blend-mode:multiply">
<g style="mix-blend-mode:multiply">
<path d="M109.494 114.818V149.134H122.513L116 155.646V184.195L131.018 169.234V159.301L184.976 128.2L195.901 131.835L221.891 123.199V77.3572L210.628 73.6049L210.621 56.5746L195.908 61.465L117.991 106.348L109.494 114.818Z" fill="#A48DBA"/>
</g>
</g>
<g style="mix-blend-mode:hard-light">
<g style="mix-blend-mode:hard-light">
<path d="M48.2336 48.87L33.2159 57.5197L33.2229 68.756L78.0547 94.5808L34.0457 68.0248V57.8025L48.2336 48.87Z" fill="#FFDF52"/>
</g>
</g>
<path d="M141.735 83.1099L186.02 58.7681L141.735 84.3239V83.1099Z" fill="#FFCB52"/>
<g style="mix-blend-mode:hard-light">
<g style="mix-blend-mode:hard-light">
<path d="M101.003 21.3069L36.922 58.7681V66.3555L71.1336 86.7933L101.003 77.1435V21.3069Z" fill="#FFCB52"/>
</g>
</g>
<path d="M113.254 65.9669L98.2455 91.8894L123.033 106.172L138.041 80.2493L113.254 65.9669Z" fill="#D0DDF2"/>
<path d="M158.599 74.9017L133.818 60.6235L113.324 66.0934L138.105 80.3784L158.599 74.9017Z" fill="#BECFEB"/>
<path d="M223.516 37.5371L198.729 23.2521L196.412 34.5229L221.2 48.801L223.516 37.5371Z" fill="#D0DDF2"/>
<path d="M244.003 19.41L219.222 5.13184L210.331 12.9814L198.722 23.2658L223.502 37.544L244.003 19.41Z" fill="#BECFEB"/>
<path d="M128.584 126.745L103.803 112.459L98.3134 92.0148L123.094 106.293L128.584 126.745Z" fill="#A4BBE0"/>
<path d="M128.57 178.594L103.789 164.309L112.411 156.68L137.199 170.965L128.57 178.594Z" fill="#D0DDF2"/>
<path d="M123.073 205.364L98.2926 191.079L103.789 164.309L128.57 178.594L123.073 205.364Z" fill="#A4BBE0"/>
<path d="M158.599 74.9017L142.488 65.6175L196.461 34.5504L221.2 48.801L160.908 83.51L158.599 74.9017Z" fill="#A4BBE0"/>
<path d="M128.584 126.745L137.206 124.441L137.199 170.965L112.46 156.708L112.474 117.453L128.584 126.745Z" fill="#BECFEB"/>
<path d="M253.503 54.8157L253.489 106.672L258.972 127.117L243.968 153.032L223.468 158.508L158.557 195.873L138.063 214L123.059 205.35L128.556 178.58L128.57 126.731L123.087 106.286L138.091 80.3715L158.592 74.8948L223.502 37.5301L243.996 19.4031L259 28.0458L253.503 54.8157Z" fill="#899DBF"/>
<path d="M250.122 47.311L231.703 36.7024L244.598 25.3075L253.579 30.4807L250.122 47.311Z" fill="#5C7194"/>
<path d="M251.844 119.13L253.801 126.434L240.788 148.9L233.466 150.859L251.844 119.13Z" fill="#5C7194"/>
<path d="M130.216 114.274L128.259 106.969L141.271 84.4964L148.587 82.5443L130.216 114.274Z" fill="#5C7194"/>
<path d="M137.462 208.096L128.48 202.922L131.937 186.092L150.35 196.701L137.462 208.096Z" fill="#5C7194"/>
<path d="M248.677 57.5954L248.663 105.376L219.942 154.984L158.557 190.32L133.382 175.808L133.389 128.021L162.118 78.4195L223.502 43.0828L248.677 57.5954Z" fill="#7151C4"/>
<path d="M211.61 149.093L153.316 182.636L133.375 171.145V175.815L158.557 190.32L219.948 154.984L211.61 149.093Z" fill="#BECFEB"/>
<path d="M248.67 57.5886L223.495 43.0759L219.444 45.4073L238.9 56.6229L238.88 102.003L211.61 149.093L219.948 154.984L248.663 105.389L248.67 57.5886Z" fill="#BECFEB"/>
<path d="M248.663 105.389L238.88 102.003L211.61 149.093L219.948 154.984L248.663 105.389Z" fill="#92AAD1"/>
<path d="M238.887 56.6229L248.677 57.5954L223.502 43.0828L219.444 45.4211L238.887 56.6229Z" fill="#D0DDF2"/>
<path d="M158.557 190.32L153.33 182.629L133.382 171.138V175.808L158.557 190.32Z" fill="#92AAD1"/>
<g style="mix-blend-mode:multiply">
<path d="M197.449 107.052C198.57 106.252 199.019 106.459 199.199 107.645L200.139 113.929C200.319 115.17 199.78 116.102 198.659 116.902L189.726 123.496C189.334 123.734 189.014 124.074 188.801 124.48C188.588 124.886 188.489 125.342 188.516 125.8C188.516 126.779 188.966 126.986 189.726 126.551L202.117 119.412C203.237 118.764 203.735 118.999 203.735 120.344V126.6C203.762 127.167 203.624 127.729 203.337 128.219C203.05 128.709 202.626 129.105 202.117 129.359L187.597 137.712C181.761 141.071 178.304 139.857 178.304 133.96V128.531C178.304 122.737 180.994 119.068 185.26 115.943L197.449 107.052ZM198.521 94.2291C199.69 93.5393 200.139 93.8635 200.139 95.1602V101.934C200.179 102.503 200.046 103.07 199.757 103.562C199.469 104.055 199.038 104.449 198.521 104.693L190.307 109.425C189.187 110.073 188.689 109.838 188.689 108.493V101.72C188.661 101.153 188.8 100.59 189.087 100.1C189.374 99.6104 189.798 99.2145 190.307 98.9608L198.521 94.2291Z" fill="#FFCB52"/>
<g style="mix-blend-mode:multiply">
<path d="M253.503 54.8157L253.489 106.672L258.972 127.117L243.968 153.032L223.468 158.508L158.557 195.873L138.063 214L110.524 198.128L123.336 204.012L128.556 178.58L128.57 128.793L112.474 117.453L128.57 126.731L123.087 106.286L138.091 80.3715L158.592 74.8948L142.488 65.6174L161.516 73.2118L211.278 44.5658L200.81 37.0542L212.564 43.8277L223.502 37.5301L243.996 19.4031L259 28.0458L253.503 54.8157Z" fill="#A48DBA"/>
</g>
</g>
<g style="mix-blend-mode:hard-light">
<g style="mix-blend-mode:hard-light">
<path d="M88.5367 25.6593L105.843 15.6921H135.941L171.203 36.0058L135.782 16.2784H105.815L88.5367 25.6593Z" fill="#FFDF52"/>
</g>
</g>
</g>
<defs>
<clipPath id="clip0_2_3">
<rect width="259" height="214" fill="white"/>
</clipPath>
</defs>
</svg>
