<svg width="211" height="215" viewBox="0 0 211 215" fill="none" xmlns="http://www.w3.org/2000/svg">
<path d="M210.993 123.69V140.16L210.56 140.298L186.279 148.385L175.891 144.923L124.583 174.519L122.269 175.852H122.242L118.574 177.981L119.356 178.763L124.583 183.985L110.303 198.235H81.782L67.5216 183.985L72.7221 178.763H72.7484L73.5045 177.981L69.8556 175.872L67.5216 174.519L35.102 155.828L24.7141 159.291L0.460225 151.223L0 151.066V134.596L10.7298 131.022L24.7141 126.371L35.102 129.826L36.864 128.821L55.3716 118.146L57.5215 116.884L67.5216 111.136L69.8359 109.783L81.8017 102.885L92.4198 96.7687L86.4368 90.7707L100.697 76.5215H129.211L141.158 88.432L143.498 90.7707L142.348 91.9138L137.489 96.7687L140.309 98.3979L153.472 105.979L155.628 107.24L174.129 117.916L175.891 118.921L186.279 115.465L200.283 120.117L210.993 123.69Z" fill="#BECFEB"/>
<path d="M175.891 144.923V161.669L124.583 191.291V183.985L119.356 178.763L118.574 177.981L122.242 175.852H122.269L124.583 174.519L175.891 144.923Z" fill="#5F7596"/>
<path d="M35.1086 155.828V172.587L67.5084 191.284V183.985L73.5111 177.987L35.1086 155.828Z" fill="#92AAD1"/>
<path d="M174.123 137.191V94.0555L105.175 133.834L112.196 140.857V172.968L174.123 137.191Z" fill="#7151C4"/>
<path d="M79.8885 140.857V172.916L36.8706 148.103V104.967L86.9102 133.834L79.8885 140.857Z" fill="#727CE8"/>
<path d="M104.116 148.917H87.9622V192.053H104.116V148.917Z" fill="#4F6180"/>
<path d="M112.196 140.85V183.985L104.116 192.059V148.917L112.196 140.85Z" fill="#3C4B66"/>
<path d="M79.8885 140.85V183.985L87.9622 192.059V148.917L79.8885 140.85Z" fill="#5C7194"/>
<path d="M124.57 173.54L113.051 162.024L112.196 162.516V173.54L104.116 181.607H87.9621L79.8885 173.54V162.47L79.0601 161.997L67.5084 173.54L81.7754 187.796H110.309L124.57 173.54Z" fill="#EBF2FF"/>
<path d="M186.286 141.244V98.1089L174.123 94.0555V137.191L186.286 141.244Z" fill="#6F88B3"/>
<path d="M200.283 93.4512V136.587L199.83 136.744L186.279 141.238V98.1024L200.283 93.4512Z" fill="#3C4B66"/>
<path d="M210.993 113.245V129.715L200.283 133.289L194.872 135.076L186.279 137.94L177.706 135.076L175.891 134.478L174.129 126.732L186.279 130.792L200.283 126.141V109.671L210.993 113.245Z" fill="#BECFEB"/>
<path d="M24.7075 152.15V109.014L36.8706 104.967V148.103L24.7075 152.15Z" fill="#3C4B66"/>
<path d="M10.7167 147.492V104.356L24.7075 109.014V152.15L10.7167 147.492Z" fill="#4F6180"/>
<path d="M35.1086 145.383L36.8706 137.651L24.7075 141.704L10.7167 137.04V120.583L0 124.157V140.614L24.7075 148.845L35.1086 145.383Z" fill="#EBF2FF"/>
<path d="M110.309 187.802H81.7754V215H110.309V187.802Z" fill="#BECFEB"/>
<path d="M124.583 173.54V200.751L110.303 215V187.809L122.269 175.852L124.583 173.54Z" fill="#97AAC7"/>
<path d="M186.279 137.94V165.131L175.891 161.669V144.923L174.129 137.184V126.732L175.891 134.478L177.706 135.075L186.279 137.94Z" fill="#92AAD1"/>
<path d="M210.993 129.715V156.906L186.279 165.131V137.94L194.872 135.075L200.283 133.289L210.993 129.715Z" fill="#5F7596"/>
<path d="M67.5084 173.547V200.744L81.7754 215V187.802L67.5084 173.547Z" fill="#D0DDF2"/>
<path d="M24.7075 148.858V176.049L35.1086 172.587V155.829L36.8706 148.103V137.651L35.1086 145.396L24.7075 148.858Z" fill="#97AAC7"/>
<path d="M0 140.627V167.824L24.7075 176.049V148.858L0 140.627Z" fill="#BECFEB"/>
<path d="M110.309 121.726H81.7754V148.924H110.309V121.726Z" fill="#BECFEB"/>
<path d="M124.57 107.47V134.662L110.309 148.917V121.726L124.57 107.47Z" fill="#97AAC7"/>
<path d="M186.286 71.8637V99.0615L175.891 95.5993V68.4016L186.286 71.8637Z" fill="#92AAD1"/>
<path d="M210.993 63.6453V90.8364L200.283 94.4102L186.279 99.0614V71.8703L210.993 63.6453Z" fill="#5F7596"/>
<path d="M67.5084 107.47V134.662L81.7754 148.917V121.726L67.5084 107.47Z" fill="#D0DDF2"/>
<path d="M24.7075 82.7757V109.973L35.1086 106.511V79.3136L24.7075 82.7757Z" fill="#97AAC7"/>
<path d="M0 74.5441V101.742L24.7075 109.973V82.7757L0 74.5441Z" fill="#BECFEB"/>
<path d="M124.57 107.47V125.149L175.891 95.5468V68.4016L118.567 101.472L124.57 107.47Z" fill="#5F7596"/>
<path d="M67.5084 107.47L73.5111 101.473L35.1086 79.3136V106.452L67.5084 125.149V107.47Z" fill="#BECFEB"/>
<path d="M186.286 38.944L143.485 14.2558L129.218 0H100.691L86.4237 14.2558L24.7075 49.8559L0 58.0875V74.5441L24.7075 82.7757L67.5084 107.47L81.7754 121.726H110.309L124.57 107.47L186.286 71.8638L211 63.6387V47.1756L186.286 38.944Z" fill="#EBF2FF"/>
<path d="M190.875 45.3032V65.511L206.411 60.3342V50.48L190.875 45.3032Z" fill="#BECFEB"/>
<path d="M132.42 9.67034L127.325 4.57898H102.591L97.4954 9.67034H132.42Z" fill="#BECFEB"/>
<path d="M78.5801 112.049L83.6755 117.141H108.409L113.505 112.049H78.5801Z" fill="#BECFEB"/>
<path d="M4.58252 61.392V71.2462L20.125 76.423V56.2152L4.58252 61.392Z" fill="#BECFEB"/>
<path d="M181.703 41.5915L142.262 18.8347H87.6532L29.2966 52.5034V80.1281L68.7379 102.885H123.34L181.703 69.2228V41.5915Z" fill="#7AA1F7"/>
<path d="M88.5539 28.4984L33.1428 60.4787V82.3552L29.29 80.1347V52.5034L87.6597 18.8281L88.5539 28.4984Z" fill="#5F7596"/>
<path d="M181.703 41.598V69.2293L177.851 71.4498V50.0989L140.388 28.4984H88.5539L87.6597 18.8281H142.249L181.703 41.598Z" fill="#BECFEB"/>
<path d="M142.249 18.8281L140.388 28.4984H88.5539L87.6597 18.8281H142.249Z" fill="#92AAD1"/>
<path d="M177.844 50.1056L181.703 41.5916V69.2229L177.844 71.4434V50.1056Z" fill="#D0DDF2"/>
<g style="mix-blend-mode:multiply">
<path d="M200.283 94.4102V109.671L210.993 113.245V156.906L186.279 165.131L175.891 161.669L124.583 191.291V200.751L110.303 215V187.789L116.49 181.601H104.109V148.931L110.303 148.911V121.72L124.583 107.47L136.529 100.572L140.309 98.3979L170.093 81.2187L175.891 77.8682L186.279 71.8703L210.993 63.6453V90.8364L200.283 94.4102Z" fill="#A48DBA"/>
</g>
<g style="mix-blend-mode:multiply">
<path d="M24.7075 176.049H41.0915V159.284L38.7641 149.193V108.62L41.0915 109.908V92.262L24.7075 82.7756V141.704L35.1086 145.396L24.7075 148.858V176.049Z" fill="#A48DBA"/>
</g>
<path d="M29.2966 52.5034L33.1494 60.4657V82.3552L29.2966 80.1282V52.5034Z" fill="#92AAD1"/>
<g style="mix-blend-mode:multiply">
<path d="M33.1494 82.3552V60.4656L88.5539 28.505H110.309L94.2212 18.8347H87.6532L29.2966 52.5034V80.1281L33.1494 82.3552Z" fill="#A48DBA"/>
</g>
<g style="mix-blend-mode:soft-light">
<path d="M173.045 52.267L138.672 32.4468H94.7537L73.8924 98.6082L121.828 98.9564L173.045 69.4068V52.267Z" fill="#B0BCD1"/>
</g>
<path d="M109.619 67.4096C108.679 68.0994 107.87 68.1257 106.628 67.6067L100.099 64.8738C98.784 64.3285 98.784 63.7372 99.7571 63.0474L107.055 57.4568C107.785 56.8918 107.712 56.524 106.884 56.0313C106.531 55.8138 106.125 55.6986 105.71 55.6986C105.296 55.6986 104.89 55.8138 104.537 56.0313L92.7551 62.8307C92.3007 63.1374 91.7649 63.3012 91.2166 63.3012C90.6683 63.3012 90.1324 63.1374 89.6781 62.8307L84.517 59.8481C83.4453 59.2306 83.4453 58.6919 84.517 58.0744L98.3238 50.1187C103.873 46.9194 109.81 46.5514 114.675 49.3566L119.159 51.945C123.939 54.7042 123.104 57.2006 119.626 59.8284L109.619 67.4096ZM118.666 73.8083C118.213 74.1161 117.678 74.2808 117.131 74.2808C116.583 74.2808 116.048 74.1161 115.595 73.8083L110 70.5826C108.889 69.9257 108.889 69.4527 110 68.8089L117.811 64.3022C118.266 63.9972 118.802 63.8343 119.349 63.8343C119.897 63.8343 120.433 63.9972 120.888 64.3022L126.483 67.5279C127.548 68.1454 127.548 68.6906 126.483 69.3016L118.666 73.8083Z" fill="#FFCB52"/>
</svg>
