<svg width="81" height="81" viewBox="0 0 81 81" fill="none" xmlns="http://www.w3.org/2000/svg">
<g clip-path="url(#clip0_30_296)">
<path d="M76.5688 46.8758C76.7258 47.1207 76.8678 47.3748 76.9941 47.6369C77.032 47.7155 77.07 47.7942 77.1072 47.8715C77.1299 47.9184 77.1531 47.9667 77.1738 48.0095C77.1944 48.0523 77.207 48.0785 77.2153 48.117C77.2236 48.1556 77.2639 48.2178 77.276 48.2749C77.2881 48.332 77.3273 48.4203 77.3522 48.4933C77.3735 48.5375 77.3823 48.5877 77.3993 48.6407C77.4163 48.6937 77.4325 48.7523 77.4474 48.808C77.4623 48.8638 77.4734 48.8975 77.4844 48.9416C77.5024 49.0145 77.5217 49.0937 77.5357 49.1618C77.5604 49.2746 77.5819 49.3867 77.6001 49.4981C77.6088 49.5552 77.6195 49.6129 77.6268 49.6707C77.6341 49.7284 77.6427 49.7855 77.65 49.8432C77.6639 49.9539 77.6744 50.0645 77.6787 50.1695C77.6831 50.2746 77.6915 50.3879 77.6964 50.5012C77.6985 50.5768 77.7 50.6509 77.698 50.725C77.696 50.7991 77.6968 50.8753 77.6941 50.948C77.6915 51.0207 77.6873 51.0976 77.6819 51.1716L77.6806 51.2045C77.6651 51.3821 77.6473 51.5693 77.616 51.746C77.6089 51.7954 77.6005 51.8454 77.5913 51.894L77.5768 51.9776C77.56 52.0707 77.5404 52.1652 77.5194 52.257C77.5157 52.2741 77.5126 52.2926 77.5075 52.3104C77.5023 52.3282 77.5022 52.335 77.4999 52.348L77.4858 52.4041C77.4666 52.4781 77.4474 52.552 77.4219 52.6272C77.4137 52.6635 77.4021 52.6997 77.3918 52.7353L77.3611 52.8351L77.2854 53.0622C77.2469 53.1709 77.2044 53.2713 77.1645 53.3841C77.1246 53.4969 77.0919 53.5569 77.0517 53.6443C77.0116 53.7317 76.9872 53.7843 76.9522 53.8539C76.9172 53.9235 76.8757 54.0082 76.8337 54.0812C76.7918 54.1541 76.7504 54.2319 76.7097 54.3111C76.669 54.3902 76.6408 54.4277 76.6046 54.4842L76.5081 54.6396C76.4306 54.7564 76.3493 54.8721 76.264 54.987C76.233 55.0292 76.2005 55.072 76.166 55.1142C76.0467 55.2687 75.9186 55.4189 75.7857 55.5629C75.7069 55.6485 75.6255 55.732 75.5413 55.8135L75.5153 55.8379C75.4557 55.8956 75.3989 55.9519 75.3337 56.0088C75.2686 56.0658 75.1894 56.1363 75.116 56.1972C75.0425 56.2582 74.9928 56.2974 74.9383 56.3407C74.8837 56.384 74.7831 56.4598 74.7027 56.5172L74.5889 56.5976L74.4291 56.7036L74.2889 56.7933L74.2681 56.8034L74.1175 56.893C74.0675 56.9172 74.0214 56.9496 73.9705 56.9758L73.9483 56.9865C73.8968 57.0113 73.844 57.0368 73.7925 57.0617L73.6297 57.1402L73.3404 57.2797C73.243 57.3266 73.141 57.3639 73.0396 57.4026L72.1835 57.7287C71.894 57.8394 71.6114 57.9468 71.3274 58.0582C70.2955 58.4571 69.2668 58.8625 68.2412 59.2743L67.2152 59.6891L66.1927 60.1074C65.8517 60.2463 65.5106 60.3887 65.1708 60.5304C64.5845 60.7746 63.9994 61.0216 63.4157 61.2714L63.1309 61.3917L63.0557 61.4279C62.6388 61.6052 62.2232 61.7852 61.8063 61.9658C61.2901 62.1898 60.7749 62.4156 60.2606 62.6432C59.9888 62.7623 59.7177 62.8829 59.4459 63.0054C58.8806 63.2554 58.3173 63.5094 57.756 63.7676L57.4279 63.9157C57.126 64.0613 56.8181 64.1944 56.5129 64.3365L56.4823 64.3513C55.8519 64.6417 55.2235 64.935 54.5972 65.2314C53.5638 65.7196 52.5344 66.216 51.5089 66.7207C50.6808 67.1201 49.858 67.5282 49.0405 67.9451C48.6286 68.1505 48.2188 68.3578 47.811 68.5669C45.8152 69.5838 43.833 70.6276 41.8643 71.6983C41.3588 71.9727 40.8544 72.2494 40.3511 72.5284L39.3001 73.1117L38.6349 73.4852L37.992 73.848C37.301 74.2402 36.612 74.6354 35.925 75.0336C35.7286 75.1454 35.5348 75.2592 35.339 75.3723L35.3084 75.3871L34.5141 75.8518L33.735 76.3126L33.6863 76.3361L33.3253 76.551L33.2221 76.6109L33.2138 76.6149C33.0249 76.7281 32.8342 76.8303 32.6408 76.9236C32.5462 76.9692 32.4516 77.0148 32.3592 77.0508L32.1591 77.1337L32.1425 77.1418L31.9717 77.2071L31.6678 77.3094L31.6288 77.3282L31.5955 77.3443L31.4617 77.3833C31.3466 77.415 31.2303 77.4439 31.116 77.4701C31.0641 77.4832 31.0122 77.4929 30.9609 77.504L30.9498 77.5094L30.745 77.5469L30.5956 77.5713C30.5313 77.5802 30.4691 77.5898 30.4055 77.5967L30.2217 77.6173C30.0936 77.6291 29.9659 77.638 29.8384 77.6439L29.7135 77.648L29.5873 77.6493C29.4866 77.6503 29.3866 77.6492 29.2853 77.6453C29.184 77.6414 29.0854 77.6362 28.9822 77.6213C28.9313 77.6187 28.881 77.614 28.8321 77.6087L28.6821 77.5926C28.6242 77.5864 28.5671 77.5783 28.51 77.5701C28.3415 77.5442 28.1724 77.5135 28.0041 77.4738C27.9471 77.4622 27.8914 77.4499 27.8365 77.4356L27.6703 77.3933L27.5036 77.3461L27.3389 77.2962C27.2861 77.2792 27.2312 77.2614 27.1771 77.2416L27.0154 77.1835C26.9619 77.165 26.9085 77.1432 26.8557 77.1227L26.6969 77.0564L26.5402 76.9874L26.3849 76.9143C26.2775 76.8623 26.1632 76.8102 26.065 76.7487C26.0206 76.7242 25.9742 76.699 25.9305 76.6724L25.7823 76.5857C25.7332 76.5549 25.6847 76.5256 25.637 76.4942C25.5893 76.4627 25.5197 76.418 25.4625 76.3776C25.4053 76.3372 25.3487 76.2981 25.2908 76.2563C25.2575 76.2332 25.2248 76.2082 25.1921 76.1831C25.1077 76.1183 25.0247 76.0529 24.9418 75.984C24.9132 75.9604 24.8826 75.936 24.8555 75.9117L24.8412 75.8998C24.7855 75.8519 24.7311 75.8032 24.6775 75.7525C24.6239 75.7018 24.5696 75.6532 24.5168 75.6004C24.4123 75.4977 24.3094 75.3908 24.2106 75.282C24.1788 75.248 24.1477 75.212 24.1166 75.1759C24.0855 75.1399 24.0328 75.0769 23.9909 75.0256C23.9632 74.993 23.9363 74.9584 23.9093 74.9238C23.9013 74.9072 23.887 74.8954 23.8748 74.8809C23.8431 74.84 23.8135 74.7999 23.7819 74.7556C23.7502 74.7113 23.7475 74.7092 23.7314 74.6864C23.7152 74.6636 23.6815 74.6186 23.658 74.584C23.658 74.584 23.652 74.5716 23.6493 74.5661C23.6333 74.5329 23.6083 74.5059 23.5881 74.4748C23.568 74.4437 23.525 74.3794 23.4948 74.331C23.4646 74.2826 23.4337 74.2329 23.405 74.1838C23.3762 74.1347 23.3453 74.085 23.3172 74.0339C23.3144 74.0296 23.3121 74.025 23.3106 74.0201C23.2893 73.9759 23.268 73.9318 23.244 73.8821C23.2201 73.8324 23.2114 73.8144 23.1948 73.7799C23.1422 73.6709 23.089 73.5605 23.0364 73.4515C23.0098 73.3963 22.9832 73.3411 22.9565 73.2859C22.9299 73.2307 22.9026 73.1741 22.8871 73.1135C22.8717 73.0529 22.8422 72.9991 22.8219 72.9391C22.8119 72.9184 22.8013 72.8964 22.7913 72.8757C21.8979 70.3263 20.952 67.7971 19.9536 65.2882C19.7946 64.8874 19.6332 64.4862 19.4692 64.0844C18.6626 62.0919 17.8205 60.1087 16.9428 58.1346C16.2859 56.6562 15.6111 55.1859 14.9185 53.7236C14.7275 53.3275 14.5372 52.9328 14.3462 52.5368C13.7139 51.2257 13.0671 49.9211 12.4057 48.6229C10.9992 45.8651 9.52815 43.1418 7.99262 40.453C7.28602 39.213 6.56499 37.981 5.8296 36.7571C5.13398 35.599 4.4272 34.4486 3.70924 33.3059L3.58577 33.1103C3.48311 32.9471 3.38806 32.7821 3.30269 32.6157C2.46922 31.0159 2.278 29.1575 2.76754 27.4149C3.25709 25.6722 4.39103 24.1749 5.94091 23.2244L5.95062 23.2198C6.04963 23.1584 6.15343 23.0999 6.25788 23.0427C6.36233 22.9855 6.4737 22.9284 6.58638 22.8741C6.65593 22.8405 6.72549 22.807 6.79643 22.7728C6.86738 22.7385 6.95416 22.7052 7.03333 22.6738L7.09175 22.6457L7.14602 22.6195C13.6252 20.0268 20.0132 17.2298 26.31 14.2284C28.6993 13.0887 31.0754 11.9184 33.4386 10.7176C38.0683 8.37155 42.6394 5.9098 47.1517 3.33232C47.3029 3.24752 47.4526 3.16683 47.6042 3.09371C48.5195 2.65466 49.5166 2.41293 50.53 2.38443C51.5433 2.35593 52.5499 2.54132 53.4835 2.92837C54.417 3.31543 55.2564 3.89538 55.9463 4.63004C56.6361 5.3647 57.1609 6.2374 57.486 7.1907L57.5607 7.4098C58.11 9.02286 58.682 10.6272 59.2766 12.2229C60.4532 15.374 61.7137 18.4903 63.058 21.5718C63.9467 23.5995 64.8706 25.6102 65.8298 27.604C65.9489 27.851 66.068 28.098 66.1871 28.3451C67.2412 30.5142 68.3404 32.6621 69.4848 34.7888C71.3417 38.2411 73.31 41.633 75.3897 44.9643C75.7729 45.6141 76.1659 46.2513 76.5688 46.8758Z" fill="#AC4250"/>
<g opacity="0.4">
<path opacity="0.4" d="M23.2893 74.0541C23.7579 74.8795 24.388 75.6025 25.1427 76.1806C25.8974 76.7587 26.7615 77.1803 27.6842 77.4206C28.6069 77.6609 29.5697 77.7151 30.5162 77.58C31.4626 77.4449 32.3735 77.1232 33.1955 76.6339L33.3077 76.5679C34.1696 76.0536 35.0351 75.5455 35.9042 75.0436C32.1875 73.4271 26.8912 73.6371 23.2893 74.0541Z" fill="#8C3047"/>
<path opacity="0.4" d="M3.68256 33.3323C4.40052 34.4751 5.1073 35.6255 5.80292 36.7835C21.9416 31.4129 30.0542 18.0957 33.4139 10.7482C31.0508 11.949 28.6746 13.1193 26.2854 14.259C21.4873 20.6434 13.0606 29.9921 3.27601 32.6422C3.35721 32.8105 3.45643 32.9736 3.5591 33.1367L3.68256 33.3323Z" fill="#8C3047"/>
<path opacity="0.4" d="M7.97147 40.4768C9.50793 43.1651 10.979 45.8884 12.3845 48.6467C22.948 41.8873 31.8597 32.723 42.2482 27.4105C50.3437 23.2702 58.4194 21.9936 63.0389 21.5997C61.6922 18.5204 60.4318 15.4041 59.2575 12.2508C55.9423 15.7938 50.9027 19.6649 43.4336 22.3346C31.1466 26.7289 15.85 35.6483 7.97147 40.4768Z" fill="#8C3047"/>
<path opacity="0.4" d="M69.4685 34.8153C67.9809 35.5668 66.4987 36.3938 65.0358 37.2711C63.5318 38.1665 62.0543 39.1239 60.6115 40.1037C55.8074 43.368 51.4339 46.928 48.1388 49.7945C46.7017 51.042 45.4697 52.1601 44.4924 53.0668C44.0823 53.4466 43.7177 53.7891 43.4014 54.0897C47.0976 54.9455 50.7254 56.0651 54.2569 57.4398C54.4419 57.5105 54.6255 57.5818 54.8077 57.6539C55.5795 57.9553 56.3296 58.2604 57.058 58.5691L57.4783 58.7474C58.8947 59.3521 60.22 59.9599 61.4311 60.5444C62.0293 60.8366 62.5965 61.1215 63.1328 61.3993L63.0577 61.4355C62.6408 61.6128 62.2252 61.7927 61.8082 61.9734C61.2921 62.1974 60.7769 62.4231 60.2625 62.6508C59.9908 62.7699 59.7197 62.8904 59.4479 63.013C58.8826 63.2629 58.3192 63.517 57.7579 63.7752L57.4298 63.9233C57.0268 63.66 56.5937 63.3841 56.1331 63.101C56.0765 63.0654 56.0178 63.029 55.9578 62.9933C54.9226 62.3579 53.7606 61.6868 52.5058 61.0297L52.1374 60.8382C51.4675 60.4945 50.779 60.1546 50.0625 59.8316C49.8819 59.7486 49.6985 59.667 49.5123 59.5866C45.5709 57.8454 41.1004 56.5465 36.9548 56.8991C36.5293 56.9341 36.1081 56.9876 35.6912 57.0593C32.0581 57.6853 28.4412 59.4295 25.1933 61.4942C24.8348 61.7215 24.4811 61.9516 24.1335 62.1872L23.8746 62.3614C23.0615 62.9151 22.2791 63.483 21.5318 64.0525C20.9761 64.4753 20.4405 64.8969 19.9283 65.314C19.7694 64.9132 19.6079 64.512 19.4439 64.1103C18.6373 62.1178 17.7952 60.1345 16.9176 58.1604C18.2586 57.3045 19.6557 56.5393 21.0991 55.87C21.1937 55.8244 21.2883 55.7788 21.3773 55.7359C21.6657 55.6036 21.9594 55.4756 22.2586 55.3517C25.5403 53.9622 29.0369 53.1515 32.5912 52.9562C33.0772 52.9305 33.5717 52.9189 34.0746 52.9213C34.4519 52.9213 34.8345 52.929 35.2184 52.9429C36.113 52.9776 37.0277 53.0502 37.9528 53.1552C37.9528 53.1552 38.6882 52.3549 39.966 51.0226C43.5938 47.2319 51.6147 39.1607 59.6591 32.9305C60.4142 32.3464 61.1697 31.7797 61.9255 31.2303C63.3611 30.1859 64.7842 29.219 66.1695 28.3655C67.2249 30.5397 68.3245 32.6896 69.4685 34.8153Z" fill="#8C3047"/>
<path opacity="0.4" d="M76.5688 46.8758C76.1673 46.2495 75.7698 45.6208 75.3762 44.9895C73.0848 48.0422 70.7043 52.6382 71.3155 58.0725C71.8863 57.8506 72.457 57.6321 73.0277 57.417C73.9588 57.0643 74.8074 56.5234 75.5197 55.8286C76.2319 55.1338 76.7922 54.3003 77.1651 53.3808C77.538 52.4614 77.7154 51.476 77.6859 50.4872C77.6565 49.4985 77.4209 48.5279 76.9941 47.6369C76.8678 47.3749 76.7258 47.1207 76.5688 46.8758Z" fill="#8C3047"/>
</g>
<g opacity="0.53">
<path opacity="0.53" d="M77.2783 53.0724C77.2399 53.1811 77.1974 53.2815 77.1575 53.3943C77.0927 53.5515 77.0217 53.7099 76.9452 53.8642C76.8687 54.0184 76.7874 54.1699 76.7027 54.3213C76.4397 54.7713 76.1285 55.1917 75.7745 55.5752C75.6957 55.6608 75.6143 55.7443 75.5301 55.8257C74.9722 56.3724 74.3281 56.8243 73.6238 57.1635L73.3303 57.305C73.233 57.352 73.1303 57.3879 73.0289 57.4266C72.7393 57.5373 72.4575 57.6426 72.1735 57.754C71.8895 57.8655 71.6014 57.9721 71.3167 58.0821C70.2848 58.4811 69.2563 58.8869 68.2311 59.2997C67.8887 59.4359 67.5456 59.5741 67.2052 59.7144C66.8648 59.8548 66.5224 59.991 66.1827 60.1327C65.8429 60.2744 65.5005 60.414 65.1608 60.5558C64.5744 60.8 63.9894 61.0469 63.4057 61.2967L63.1208 61.417L63.0457 61.4533C62.6287 61.6305 62.2118 61.8112 61.7962 61.9911C61.2801 62.2151 60.7649 62.4409 60.2505 62.6685L59.4379 63.0315L58.6587 63.3817L57.7404 63.7956C57.3256 63.9832 56.9112 64.1728 56.4973 64.3645L56.4667 64.3793C54.7989 65.1495 53.1404 65.9379 51.4913 66.7445C50.6658 67.1494 49.843 67.5576 49.0229 67.9689L47.7934 68.5908C45.7976 69.6076 43.8153 70.6514 41.8466 71.7222C41.3411 71.9966 40.8367 72.2733 40.3334 72.5522L39.2825 73.1356L38.6173 73.5091L37.9744 73.8719C37.2829 74.2632 36.5932 74.6581 35.9053 75.0568L35.2922 75.4137L34.4978 75.8784C34.2372 76.0313 33.9779 76.1835 33.7187 76.3392L33.3103 76.5804L33.2078 76.6417L33.1995 76.6457C33.0106 76.7589 32.8199 76.8611 32.6265 76.9543C32.5319 77 32.4373 77.0456 32.345 77.0816C32.274 77.1158 32.2058 77.1487 32.1275 77.1712L31.9567 77.2365C31.841 77.2764 31.7259 77.3149 31.6112 77.3521L31.4414 77.4017C31.3263 77.4333 31.21 77.4622 31.0957 77.4884C31.0437 77.5016 30.9918 77.5113 30.9406 77.5224L30.7173 77.5535L30.5679 77.5779C30.3169 77.615 30.0641 77.6392 29.8108 77.6505C29.7266 77.6537 29.6424 77.6569 29.5596 77.6559C29.3582 77.6578 29.1576 77.6508 28.9579 77.6348C28.8566 77.6275 28.7575 77.6175 28.659 77.6088C28.6012 77.6027 28.5441 77.5945 28.487 77.5863C28.3169 77.5606 28.1473 77.529 27.9783 77.4914C27.9213 77.4798 27.8656 77.4675 27.8107 77.4532L27.6445 77.4108L27.4778 77.3637C27.368 77.3316 27.2596 77.2988 27.1513 77.2592L26.9896 77.2011C26.9361 77.1826 26.8827 77.1608 26.8299 77.1403L26.6711 77.074L26.5144 77.005L26.3591 76.9319C26.2517 76.8799 26.1374 76.8278 26.0392 76.7663C25.9948 76.7418 25.9483 76.7166 25.9047 76.69L25.7565 76.6033C25.7074 76.5725 25.6589 76.5432 25.6112 76.5118C25.4939 76.4356 25.3788 76.3568 25.265 76.2738C25.2317 76.2508 25.199 76.2258 25.1663 76.2007C25.0819 76.1359 24.9989 76.0705 24.916 76.0016C24.882 75.9738 24.848 75.9459 24.8154 75.9174C24.593 75.7242 24.3824 75.5179 24.1848 75.2996C24.153 75.2656 24.1219 75.2296 24.0908 75.1935C24.0597 75.1575 24.007 75.0944 23.9651 75.0432C23.9374 75.0106 23.9105 74.976 23.8835 74.9414C23.8755 74.9248 23.8612 74.913 23.849 74.8984C23.8173 74.8576 23.7877 74.8175 23.7561 74.7732C23.7244 74.7289 23.7217 74.7268 23.7055 74.704C23.6894 74.6812 23.6483 74.6244 23.6207 74.585C23.5931 74.5456 23.5797 74.5248 23.5596 74.4937C23.5394 74.4626 23.4964 74.3983 23.4662 74.3499C23.436 74.3015 23.4052 74.2518 23.3764 74.2027C23.3476 74.1537 23.3167 74.1039 23.2887 74.0528C23.2858 74.0486 23.2835 74.0439 23.282 74.039C23.2607 73.9948 23.2394 73.9507 23.2155 73.901C23.1915 73.8513 23.1828 73.8334 23.1662 73.7989C23.1136 73.6898 23.0604 73.5794 23.0078 73.4704C22.9812 73.4152 22.9546 73.36 22.9279 73.3048C22.874 73.193 22.8347 73.0759 22.7933 72.9581C23.0231 73.3357 23.2879 73.6909 23.5844 74.0191C24.6948 75.2326 26.1949 76.0244 27.8308 76.2606C29.4666 76.4969 31.1378 76.1629 32.5614 75.3153L32.6715 75.2486C33.1403 74.9692 33.6102 74.6922 34.0813 74.4174C41.0947 70.3015 48.2935 66.5346 55.6777 63.1165L55.9337 62.9931C57.7493 62.1549 59.5761 61.3387 61.4139 60.5442C62.007 60.2854 62.6023 60.0301 63.1998 59.7783C65.8527 58.6543 68.5241 57.5759 71.214 56.5429C71.6042 56.3922 71.9951 56.2428 72.3866 56.0948C74.1489 55.4283 75.5819 54.1014 76.377 52.3998C77.1721 50.6983 77.2657 48.7582 76.6377 46.9974C77.1921 47.896 77.5373 48.9077 77.6481 49.9586C77.7589 51.0096 77.6326 52.0733 77.2783 53.0724Z" fill="#6D2238"/>
</g>
<g style="mix-blend-mode:screen" opacity="0.53">
<g style="mix-blend-mode:screen" opacity="0.53">
<path d="M47.6303 4.75838C34.9776 12.2914 21.6872 18.7005 7.91446 23.9108L7.79369 23.9555C6.03107 24.6242 4.59874 25.9537 3.80546 27.6574C3.01217 29.361 2.92144 31.3025 3.55278 33.0633C3.00391 32.169 2.66095 31.164 2.54842 30.1199C2.43589 29.0758 2.55657 28.0184 2.9018 27.0233C3.24702 26.0281 3.8083 25.1197 4.54558 24.3629C5.28286 23.6061 6.17792 23.0196 7.16692 22.6452L7.28771 22.6005C21.0605 17.3902 34.3508 10.9811 47.0035 3.44804C47.9122 2.90673 48.9285 2.57109 49.9799 2.4651C51.0314 2.35912 52.0919 2.48541 53.0857 2.83496C54.0796 3.1845 54.9822 3.74866 55.729 4.48713C56.4759 5.22559 57.0485 6.12012 57.4061 7.10678C56.4209 5.5145 54.8434 4.37567 53.0142 3.93627C51.1851 3.49686 49.2512 3.79216 47.6303 4.75838Z" fill="#6D2238"/>
</g>
</g>
<path d="M59.2605 25.5616C59.9067 26.9941 60.5699 28.4167 61.25 29.8295C62.7594 32.9595 64.361 36.0638 66.0545 39.1204C66.6297 40.1686 67.2173 41.2093 67.8171 42.2423C69.2572 44.7355 70.7518 47.19 72.3009 49.6058C72.4626 49.8543 72.5686 50.1348 72.6116 50.4284C72.6547 50.7219 72.6338 51.0216 72.5504 51.3072C72.4707 51.5926 72.3307 51.8581 72.1399 52.086C71.949 52.3138 71.7117 52.4988 71.4438 52.6285C71.384 52.6573 71.3242 52.6862 71.259 52.7074C68.9942 53.5648 66.7374 54.4552 64.4885 55.3787C59.7801 57.3091 55.1174 59.3875 50.5574 61.5865C47.4065 63.106 44.2682 64.7011 41.1625 66.3603C37.6356 68.2414 34.1549 70.2074 30.7393 72.2373L30.6291 72.304C30.5693 72.3329 30.5067 72.3631 30.4483 72.3913C30.1814 72.5248 29.8891 72.5998 29.5913 72.611C29.2934 72.6223 28.997 72.5696 28.7223 72.4564C28.4474 72.3464 28.1999 72.1789 27.9962 71.9652C27.7926 71.7515 27.6377 71.4965 27.5419 71.2175C26.8613 69.2776 26.1487 67.3436 25.404 65.4154C24.644 63.4413 23.8521 61.478 23.0283 59.5256C22.0486 57.2072 21.0261 54.9067 19.9607 52.624C19.2016 50.9953 18.4205 49.3755 17.6174 47.7647C16.5889 45.7102 15.5273 43.6746 14.4324 41.6579C13.4608 39.88 12.4661 38.1137 11.4485 36.3591C10.3254 34.4331 9.17019 32.5259 7.98296 30.6376L7.86222 30.4441C7.70389 30.1954 7.60095 29.9155 7.56027 29.6233C7.5196 29.3311 7.5421 29.0333 7.62633 28.7497C7.70519 28.4656 7.84396 28.2011 8.03335 27.974C8.22274 27.7468 8.45841 27.5622 8.7246 27.4324C8.7719 27.4096 8.8192 27.3868 8.86371 27.3654L8.98457 27.3173C14.7993 24.9895 20.6133 22.4681 26.3078 19.7986C27.4171 19.2806 28.5215 18.756 29.6209 18.2247C30.9369 17.5901 32.2517 16.9447 33.5653 16.2885C38.9887 13.583 44.3722 10.7096 49.6164 7.72136C49.6651 7.69789 49.7091 7.66818 49.7522 7.64738C50.0206 7.5182 50.3134 7.44745 50.6107 7.43987C50.9081 7.43229 51.2033 7.48805 51.4765 7.60343C51.7519 7.71612 51.9995 7.88635 52.2025 8.10266C52.4056 8.31896 52.5595 8.57633 52.6539 8.85745L52.7287 9.07654C54.0827 13.047 55.5799 16.9943 57.2071 20.884C57.8747 22.4582 58.5592 24.0174 59.2605 25.5616Z" fill="#8C3047"/>
<g opacity="0.5">
<path opacity="0.5" d="M28.3338 25.2907C29.7048 21.7088 31.7179 18.6373 33.5782 16.2977C32.266 16.9543 30.9512 17.5997 29.6339 18.2338C28.5349 18.7638 27.4305 19.2884 26.3207 19.8077C22.1602 25.4271 17.6532 33.5031 11.4485 36.3592C12.4685 38.1092 13.4631 39.8755 14.4324 41.658C20.3383 37.7451 25.7362 32.0818 28.3338 25.2907Z" fill="#7C2941"/>
<path opacity="0.5" d="M41.1499 66.3699C44.2523 64.7037 47.394 63.1155 50.5448 61.5961C55.1048 59.397 59.7675 57.3186 64.476 55.3882C61.7445 55.5232 58.1438 56.2305 53.6184 58.1423C47.6299 60.6679 43.6489 63.8329 41.1499 66.3699Z" fill="#7C2941"/>
<path opacity="0.5" d="M17.6174 47.7647C18.4219 49.3715 19.2031 50.9913 19.9607 52.624C24.1514 50.8787 31.9828 46.5391 38.5757 36.7478C45.2705 26.8087 54.4037 25.4815 59.2465 25.5684C58.5494 24.021 57.8728 22.4625 57.2165 20.8931C53.8872 21.5767 44.3806 24.3376 37.4455 34.4113C32.3319 41.8409 23.7073 45.7907 17.6174 47.7647Z" fill="#7C2941"/>
<path opacity="0.5" d="M49.8688 51.1172C59.1208 48.3225 64.7261 44.757 67.8102 42.2457C67.2122 41.2119 66.6246 40.1712 66.0475 39.1239C61.1792 43.1726 51.4189 50.3884 43.4499 50.6098C35.6313 50.8302 27.289 56.3007 23.0325 59.5237C23.8591 61.4748 24.651 63.4381 25.4081 65.4135C29.6044 61.6141 38.4966 54.5533 49.8688 51.1172Z" fill="#7C2941"/>
</g>
<path d="M51.0316 58.8404C44.3015 62.0859 37.6337 65.6705 31.2136 69.4912L31.1048 69.5572C31.0436 69.5867 30.9864 69.6245 30.9266 69.6534C30.6596 69.7815 30.3687 69.8519 30.0731 69.8598C29.7775 69.8678 29.4839 69.8131 29.2119 69.6995C28.9376 69.5886 28.6906 69.4207 28.4873 69.207C28.284 68.9932 28.1291 68.7385 28.0329 68.4599C23.0601 54.2797 7.56441 28.8595 7.47185 29.1832C7.38781 29.4671 7.36544 29.7652 7.40623 30.0576C7.44702 30.35 7.55001 30.63 7.70837 30.879L7.83054 31.0718C15.846 43.8252 22.4084 57.4333 27.3971 71.6463C27.4933 71.9252 27.6483 72.1802 27.8517 72.3942C28.0551 72.6082 28.3023 72.7763 28.5768 72.8873C28.8471 73.0003 29.1388 73.0549 29.4326 73.0478C29.7264 73.0407 30.0157 72.9719 30.2817 72.8459C30.3415 72.8171 30.4027 72.7875 30.46 72.7497L30.5693 72.6851C36.9902 68.8623 43.6573 65.2798 50.3874 62.0343C57.1176 58.7888 64.0992 55.7911 71.0988 53.147C71.1601 53.1175 71.2239 53.0969 71.2837 53.0681C71.5518 52.9387 71.7893 52.7539 71.9802 52.526C72.1711 52.2981 72.3109 52.0324 72.3903 51.7469C72.4859 51.4048 57.7715 55.5902 51.0316 58.8404Z" fill="#6D2238"/>
<path d="M49.1548 9.39164C49.423 9.26234 49.7155 9.19142 50.0128 9.1836C50.3101 9.17579 50.6052 9.23126 50.8784 9.34633C51.1538 9.45901 51.4014 9.62923 51.6044 9.84554C51.8075 10.0618 51.9614 10.3192 52.0558 10.6003L52.1312 10.8208C54.3223 17.2487 60.9416 29.2043 60.9416 29.2043C57.8227 22.6614 55.086 15.943 52.7452 9.08229L52.6704 8.86321C52.576 8.58209 52.4221 8.32471 52.219 8.10841C52.0159 7.8921 51.7683 7.72188 51.4929 7.6092C51.2198 7.49384 50.9247 7.4382 50.6273 7.44602C50.33 7.45383 50.0375 7.52492 49.7693 7.65451L49.6302 7.7216C43.1174 11.4356 36.3892 14.9694 29.6354 18.2263C27.3401 19.3332 25.0236 20.4163 22.6859 21.4755C22.6859 21.4755 35.5678 16.9355 49.0157 9.45873L49.1548 9.39164Z" fill="#6D2238"/>
<g style="mix-blend-mode:screen" opacity="0.44">
<g style="mix-blend-mode:screen" opacity="0.44">
<path style="mix-blend-mode:screen" opacity="0.44" d="M55.6538 23.7713C54.0756 19.9974 52.6232 16.168 51.3106 12.3153L51.2371 12.1024C51.1454 11.8298 50.996 11.5803 50.799 11.3705C50.602 11.1606 50.3619 10.9954 50.0949 10.8859C49.8298 10.774 49.5433 10.72 49.2547 10.7274C48.9661 10.7349 48.6821 10.8036 48.4217 10.929C48.375 10.951 48.3297 10.9757 48.2859 11.003C43.1977 13.9024 37.9736 16.6904 32.7116 19.3147C31.4388 19.9512 30.1639 20.5773 28.8869 21.1931C27.8195 21.7079 26.7475 22.2169 25.6711 22.7201C20.1456 25.3099 39.9106 22.1471 45.0008 19.2519C45.0481 19.229 45.094 19.2069 45.1399 19.1848C45.4003 19.0592 45.6843 18.9904 45.9729 18.983C46.2615 18.9756 46.548 19.0297 46.8131 19.1416C47.0802 19.251 47.3204 19.4162 47.5174 19.626C47.7144 19.8358 47.8637 20.0855 47.9553 20.3582L48.0274 20.5718C49.3408 24.4223 59.5578 32.4537 59.5578 32.4537C59.5578 32.4537 58.2535 29.7028 57.6281 28.3135C56.9464 26.8097 56.2883 25.2956 55.6538 23.7713Z" fill="url(#paint0_linear_30_296)"/>
</g>
</g>
<g style="mix-blend-mode:color-burn" opacity="0.25">
<g style="mix-blend-mode:color-burn" opacity="0.25">
<path d="M57.7805 18.6173L58.2536 22.208L58.46 23.7738L58.5989 24.8227L58.6957 25.5567L59.2667 29.898L59.6653 32.9292L60.6143 40.1024L60.9923 43.0194L61.4334 46.423L62.5085 54.5084L62.6455 55.5497L62.7191 56.1112L62.766 56.4645L63.2031 59.7851L63.399 61.2828L63.1141 61.4032L63.039 61.4394C62.6221 61.6166 62.2065 61.7966 61.7896 61.9773C61.2734 62.2012 60.7582 62.427 60.2438 62.6546L59.4312 63.0176L56.1068 63.1103L55.6734 63.1219L47.7197 63.3394L46.9592 63.366L44.4642 63.4329L41.8504 63.5026L27.1284 63.9069L26.25 63.9307L24.8355 63.9699L24.5119 63.9779L21.5228 64.0586L19.4432 64.1088C18.6367 62.1163 17.7946 60.1331 16.9169 58.159C16.26 56.6806 15.5852 55.2103 14.8926 53.748L13.7173 50.5997L14.6537 47.1408L15.4339 44.2572L15.5643 43.7776L15.7454 43.0864L15.9541 42.3138L16.0486 41.9621L20.5043 36.7736L22.37 34.5981L24.8954 31.6572L26.2471 30.0834L32.451 22.856L35.3234 19.5113L35.6599 19.3626L43.5414 15.8595L52.791 17.6928L53.2501 17.7844L55.246 18.1828L56.1711 18.366L57.7368 18.6758L57.7805 18.6173Z" fill="#6D2238"/>
</g>
</g>
<path d="M54.8283 13.2812L56.3163 24.5337L60.6738 57.5161L15.8083 58.7225L15.8017 58.7087L10.7811 45.215L13.0242 36.9244L13.1186 36.5727L32.3991 14.1192L32.7355 13.9705L40.6184 10.4668L54.8111 13.2775L54.8283 13.2812Z" fill="url(#paint1_linear_30_296)"/>
<path d="M54.8402 13.2312L56.3283 24.516L60.6738 57.5161L48.2275 31.4827L46.0685 26.97L50.5132 20.0093L54.8111 13.2776L54.8402 13.2312Z" fill="url(#paint2_linear_30_296)"/>
<g style="mix-blend-mode:screen" opacity="0.46">
<g style="mix-blend-mode:screen" opacity="0.46">
<path d="M46.0685 26.9699L48.2275 31.4826L60.6738 57.516L22.7602 25.3452L26.1417 21.4062L29.1249 21.6618L35.0645 22.1707L45.1451 26.5664L45.1513 26.5685L46.0685 26.9699Z" fill="#3A8D45"/>
</g>
</g>
<path d="M54.8283 13.2811L56.3163 24.5337L60.6738 57.516L52.7619 28.306L50.5132 20.0092L38.5348 14.0213L32.7355 13.9705L40.6184 10.4667L54.8111 13.2775L54.8283 13.2811Z" fill="url(#paint3_linear_30_296)"/>
<path d="M60.6738 57.5161L28.032 47.9748L15.7604 58.744L60.6738 57.5161Z" fill="url(#paint4_linear_30_296)"/>
<g style="mix-blend-mode:screen" opacity="0.21">
<g style="mix-blend-mode:screen" opacity="0.21">
<path d="M22.7602 25.3452L60.6738 57.516L28.032 47.9747L21.5373 37.9237L19.3774 29.2848L22.7602 25.3452Z" fill="#3A8D45"/>
</g>
</g>
<g style="mix-blend-mode:screen" opacity="0.46">
<g style="mix-blend-mode:screen" opacity="0.46">
<path d="M60.6738 57.516L15.807 58.7232L10.7804 45.2136L13.0242 36.9243L13.9847 42.6103L21.8143 53.4312L60.6738 57.516Z" fill="#3A8D45"/>
</g>
</g>
<g style="mix-blend-mode:screen" opacity="0.35">
<g style="mix-blend-mode:screen" opacity="0.35">
<path d="M40.6184 10.4667L38.5348 14.0214L38.204 14.7967L38.2046 14.7981L35.0645 22.1707L21.5373 37.9238L13.9854 42.6117L10.7811 45.215L13.0242 36.9243L13.1186 36.5726L32.3991 14.1191L32.7355 13.9705L40.6184 10.4667Z" fill="#3A8D45"/>
</g>
</g>
<g style="mix-blend-mode:screen">
<g style="mix-blend-mode:screen">
<path d="M30.1116 27.9391L33.6727 22.6446L29.1159 21.6611L34.663 20.7586L38.204 14.7967L36.6718 21.8345L45.1513 26.5686L34.8851 23.6725L30.1116 27.9391Z" fill="#3A8D45"/>
</g>
</g>
<g style="mix-blend-mode:screen" opacity="0.5">
<g style="mix-blend-mode:screen" opacity="0.5">
<path style="mix-blend-mode:screen" opacity="0.5" d="M54.8402 13.2312L56.3269 24.5167L56.3149 24.5344C56.0341 24.8943 55.7437 25.2521 55.4431 25.6029C54.615 26.5668 53.7185 27.4704 52.7605 28.3067C51.3672 29.5232 49.8475 30.588 48.2275 31.4827C43.8175 33.9156 38.8033 35.0342 33.7872 34.7041C31.0592 34.5257 28.3792 33.9202 25.8459 32.9101C23.5433 31.9893 21.3878 30.743 19.4456 29.2094L32.3998 14.1171L32.7362 13.9684L40.6178 10.4653L54.8119 13.2754L54.8402 13.2312Z" fill="url(#paint5_linear_30_296)"/>
</g>
</g>
</g>
<defs>
<linearGradient id="paint0_linear_30_296" x1="41.8717" y1="31.1949" x2="43.3547" y2="10.3025" gradientUnits="userSpaceOnUse">
<stop offset="0.2" stop-color="#822E43"/>
<stop offset="1" stop-color="#8B3047"/>
</linearGradient>
<linearGradient id="paint1_linear_30_296" x1="22.1998" y1="64.1686" x2="60.9509" y2="18.5015" gradientUnits="userSpaceOnUse">
<stop stop-color="#F2FB7C"/>
<stop offset="1" stop-color="#3A8D45"/>
</linearGradient>
<linearGradient id="paint2_linear_30_296" x1="46775.1" y1="6907.45" x2="50699.6" y2="1205.09" gradientUnits="userSpaceOnUse">
<stop stop-color="#F2FB7C"/>
<stop offset="1" stop-color="#3A8D45"/>
</linearGradient>
<linearGradient id="paint3_linear_30_296" x1="64133.4" y1="3961.6" x2="69693.3" y2="-5671.44" gradientUnits="userSpaceOnUse">
<stop stop-color="#F2FB7C"/>
<stop offset="1" stop-color="#3A8D45"/>
</linearGradient>
<linearGradient id="paint4_linear_30_296" x1="55.7288" y1="60.3049" x2="12.4912" y2="51.921" gradientUnits="userSpaceOnUse">
<stop stop-color="#F2FB7C"/>
<stop offset="1" stop-color="#6DAC54"/>
</linearGradient>
<linearGradient id="paint5_linear_30_296" x1="28.9549" y1="37.3003" x2="51.6531" y2="10.551" gradientUnits="userSpaceOnUse">
<stop offset="0.2" stop-color="#822E43"/>
<stop offset="1" stop-color="#9FFFFF"/>
</linearGradient>
<clipPath id="clip0_30_296">
<rect width="60" height="60" fill="white" transform="translate(0 26.0621) rotate(-25.7451)"/>
</clipPath>
</defs>
</svg>
